<?xml version="1.0" encoding="utf-8"?>
<!-- Generator: Adobe Illustrator 16.0.0, SVG Export Plug-In . SVG Version: 6.00 Build 0)  -->
<!DOCTYPE svg PUBLIC "-//W3C//DTD SVG 1.1//EN" "http://www.w3.org/Graphics/SVG/1.1/DTD/svg11.dtd">
<svg version="1.1" id="Calque_1" xmlns="http://www.w3.org/2000/svg" xmlns:xlink="http://www.w3.org/1999/xlink" x="0px" y="0px"
	 width="25px" height="25px" viewBox="0 0 25 25" enable-background="new 0 0 25 25" xml:space="preserve">
<path fill="none" stroke="#64C0CE" stroke-width="1.5" stroke-linecap="round" stroke-linejoin="round" d="M1,5.5
	c0-0.398,0.158-0.779,0.439-1.061S2.102,4,2.5,4H22c0.398,0,0.779,0.158,1.061,0.439S23.5,5.102,23.5,5.5V22
	c0,0.398-0.158,0.779-0.439,1.061S22.398,23.5,22,23.5H2.5c-0.398,0-0.779-0.158-1.061-0.439S1,22.398,1,22V5.5z"/>
<path fill="none" stroke="#64C0CE" stroke-width="1.5" stroke-linecap="round" stroke-linejoin="round" d="M1,10h22.5"/>
<path fill="none" stroke="#64C0CE" stroke-width="1.5" stroke-linecap="round" stroke-linejoin="round" d="M7,6.25V1"/>
<path fill="none" stroke="#64C0CE" stroke-width="1.5" stroke-linecap="round" stroke-linejoin="round" d="M17.5,6.25V1"/>
<path fill="none" stroke="#64C0CE" stroke-width="1.5" stroke-linecap="round" stroke-linejoin="round" d="M5.875,13.75
	c-0.074,0-0.146,0.021-0.208,0.062c-0.062,0.042-0.109,0.101-0.138,0.169C5.5,14.05,5.493,14.125,5.507,14.198
	c0.014,0.073,0.05,0.14,0.103,0.192c0.052,0.052,0.119,0.088,0.192,0.102c0.073,0.016,0.148,0.008,0.217-0.021
	c0.068-0.027,0.127-0.076,0.168-0.137c0.041-0.062,0.063-0.135,0.063-0.209c0-0.1-0.04-0.195-0.11-0.266S5.975,13.75,5.875,13.75z"
	/>
<path fill="none" stroke="#64C0CE" stroke-width="1.5" stroke-linecap="round" stroke-linejoin="round" d="M5.875,19
	c-0.074,0-0.146,0.021-0.208,0.062c-0.062,0.042-0.109,0.101-0.138,0.169C5.5,19.3,5.493,19.375,5.507,19.448
	c0.014,0.073,0.05,0.14,0.103,0.192c0.052,0.052,0.119,0.088,0.192,0.102c0.073,0.016,0.148,0.008,0.217-0.021
	c0.068-0.027,0.127-0.076,0.168-0.137c0.041-0.062,0.063-0.135,0.063-0.209c0-0.1-0.04-0.195-0.11-0.266S5.975,19,5.875,19z"/>
<path fill="none" stroke="#64C0CE" stroke-width="1.5" stroke-linecap="round" stroke-linejoin="round" d="M12.25,13.75
	c-0.074,0-0.146,0.021-0.208,0.062c-0.062,0.042-0.11,0.101-0.138,0.169s-0.036,0.144-0.021,0.217
	c0.014,0.073,0.05,0.14,0.103,0.192c0.052,0.052,0.119,0.088,0.192,0.102c0.073,0.016,0.148,0.008,0.217-0.021
	c0.068-0.027,0.127-0.076,0.168-0.137c0.041-0.062,0.063-0.135,0.063-0.209c0-0.1-0.04-0.195-0.11-0.266S12.35,13.75,12.25,13.75z"
	/>
<path fill="none" stroke="#64C0CE" stroke-width="1.5" stroke-linecap="round" stroke-linejoin="round" d="M12.25,19
	c-0.074,0-0.146,0.021-0.208,0.062c-0.062,0.042-0.11,0.101-0.138,0.169s-0.036,0.144-0.021,0.217
	c0.014,0.073,0.05,0.14,0.103,0.192c0.052,0.052,0.119,0.088,0.192,0.102c0.073,0.016,0.148,0.008,0.217-0.021
	c0.068-0.027,0.127-0.076,0.168-0.137c0.041-0.062,0.063-0.135,0.063-0.209c0-0.1-0.04-0.195-0.11-0.266S12.35,19,12.25,19z"/>
<path fill="none" stroke="#64C0CE" stroke-width="1.5" stroke-linecap="round" stroke-linejoin="round" d="M18.625,13.75
	c-0.074,0-0.146,0.021-0.209,0.062c-0.061,0.042-0.109,0.101-0.138,0.169s-0.036,0.144-0.021,0.217
	c0.014,0.073,0.05,0.14,0.102,0.192c0.053,0.052,0.119,0.088,0.192,0.102c0.073,0.016,0.148,0.008,0.217-0.021
	c0.068-0.027,0.127-0.076,0.169-0.137C18.979,14.271,19,14.199,19,14.125c0-0.1-0.039-0.195-0.109-0.266S18.725,13.75,18.625,13.75z
	"/>
<path fill="none" stroke="#64C0CE" stroke-width="1.5" stroke-linecap="round" stroke-linejoin="round" d="M18.625,19
	c-0.074,0-0.146,0.021-0.209,0.062c-0.061,0.042-0.109,0.101-0.138,0.169s-0.036,0.144-0.021,0.217
	c0.014,0.073,0.05,0.14,0.102,0.192c0.053,0.052,0.119,0.088,0.192,0.102c0.073,0.016,0.148,0.008,0.217-0.021
	c0.068-0.027,0.127-0.076,0.169-0.137C18.979,19.521,19,19.449,19,19.375c0-0.1-0.039-0.195-0.109-0.266S18.725,19,18.625,19z"/>
</svg>
