<?xml version="1.0" encoding="utf-8"?>
<!-- Generator: Adobe Illustrator 16.0.0, SVG Export Plug-In . SVG Version: 6.00 Build 0)  -->
<!DOCTYPE svg PUBLIC "-//W3C//DTD SVG 1.1//EN" "http://www.w3.org/Graphics/SVG/1.1/DTD/svg11.dtd">
<svg version="1.1" id="Calque_1" xmlns="http://www.w3.org/2000/svg" xmlns:xlink="http://www.w3.org/1999/xlink" x="0px" y="0px"
	 width="32px" height="40.65px" viewBox="0 0 32 40.65" enable-background="new 0 0 32 40.65" xml:space="preserve">
<g>
	<g>
		<defs>
			<rect id="SVGID_1_" y="14.596" width="32" height="32"/>
		</defs>
		<clipPath id="SVGID_2_">
			<use xlink:href="#SVGID_1_"  overflow="visible"/>
		</clipPath>
		<g clip-path="url(#SVGID_2_)">
			<path fill="#64C0CE" d="M26.041,27.729h-0.424l-1.631-3.261c-0.775-1.55-2.739-2.764-4.473-2.764h-9.038
				c-1.733,0-3.697,1.214-4.472,2.764l-1.63,3.261H3.448C1.547,27.729,0,29.277,0,31.178v3.014c0,1.9,1.547,3.447,3.448,3.447h1.185
				c0.422,1.727,1.981,3.012,3.836,3.012c1.855,0,3.415-1.285,3.836-3.012h7.39c0.422,1.727,1.979,3.012,3.836,3.012
				c1.855,0,3.414-1.285,3.836-3.012h1.186c1.9,0,3.447-1.547,3.447-3.447v-0.504C32,30.402,29.327,27.729,26.041,27.729z
				 M22.309,25.307l1.213,2.423h-7.587V23.58h3.582C20.543,23.58,21.85,24.387,22.309,25.307z M7.683,25.307
				c0.46-0.92,1.766-1.727,2.794-1.727h3.582v4.149H6.471L7.683,25.307z M8.469,38.775c-1.144,0-2.075-0.931-2.075-2.074
				c0-1.145,0.931-2.075,2.075-2.075c1.144,0,2.073,0.93,2.075,2.071c0,0.002,0,0.002,0,0.004v0.002
				C10.542,37.846,9.612,38.775,8.469,38.775z M23.531,38.775c-1.145,0-2.074-0.931-2.074-2.074c0-1.145,0.93-2.075,2.074-2.075
				c1.144,0,2.074,0.932,2.074,2.075S24.676,38.775,23.531,38.775z M30.125,34.191c0,0.866-0.705,1.572-1.573,1.572h-1.185
				c-0.422-1.729-1.98-3.014-3.836-3.014c-1.856,0-3.414,1.285-3.836,3.014h-7.39c-0.422-1.729-1.981-3.014-3.836-3.014
				c-1.854,0-3.415,1.285-3.836,3.014H3.448c-0.867,0-1.573-0.706-1.573-1.572v-3.014c0-0.867,0.706-1.573,1.573-1.573h21.583
				c0.003,0,0.005,0,0.007,0c0.001,0,0.003,0,0.004,0h0.999c1.55,0,2.9,0.867,3.592,2.142h-0.076c-0.518,0-0.938,0.42-0.938,0.938
				s0.42,0.938,0.938,0.938h0.566c0,0.022,0.002,0.046,0.002,0.066V34.191L30.125,34.191z"/>
			<path fill="#64C0CE" d="M16.502,31.746h-1.004c-0.518,0-0.938,0.42-0.938,0.938s0.419,0.938,0.938,0.938h1.004
				c0.518,0,0.938-0.42,0.938-0.938S17.02,31.746,16.502,31.746z"/>
		</g>
	</g>
</g>
</svg>
