<?xml version="1.0" encoding="utf-8"?>
<!-- Generator: Adobe Illustrator 16.0.0, SVG Export Plug-In . SVG Version: 6.00 Build 0)  -->
<!DOCTYPE svg PUBLIC "-//W3C//DTD SVG 1.1//EN" "http://www.w3.org/Graphics/SVG/1.1/DTD/svg11.dtd">
<svg version="1.1" id="Calque_1" xmlns="http://www.w3.org/2000/svg" xmlns:xlink="http://www.w3.org/1999/xlink" x="0px" y="0px"
	 width="32px" height="32px" viewBox="0 0 32 32" enable-background="new 0 0 32 32" xml:space="preserve">
<g>
	<defs>
		<rect id="SVGID_1_" width="32" height="32"/>
	</defs>
	<clipPath id="SVGID_2_">
		<use xlink:href="#SVGID_1_"  overflow="visible"/>
	</clipPath>
	<g clip-path="url(#SVGID_2_)">
		<path d="M26.041,12.552h-0.424l-1.631-3.261c-0.775-1.55-2.739-2.764-4.472-2.764h-9.038c-1.733,0-3.697,1.214-4.472,2.764
			l-1.63,3.261H3.448C1.547,12.552,0,14.099,0,16v3.013c0,1.901,1.547,3.448,3.448,3.448h1.185c0.422,1.727,1.981,3.012,3.836,3.012
			s3.415-1.285,3.836-3.012h7.39c0.422,1.727,1.98,3.012,3.836,3.012s3.414-1.285,3.836-3.012h1.186c1.9,0,3.447-1.547,3.447-3.448
			V18.51C32,15.225,29.327,12.552,26.041,12.552z M22.309,10.129l1.212,2.423h-7.587v-4.15h3.581
			C20.543,8.402,21.85,9.209,22.309,10.129z M7.683,10.129c0.46-0.92,1.766-1.727,2.794-1.727h3.582v4.15H6.471L7.683,10.129z
			 M8.469,23.598c-1.144,0-2.075-0.931-2.075-2.074c0-1.145,0.931-2.076,2.075-2.076c1.144,0,2.073,0.93,2.075,2.072
			c0,0.002,0,0.002,0,0.004l0,0.002C10.542,22.668,9.612,23.598,8.469,23.598z M23.531,23.598c-1.145,0-2.074-0.931-2.074-2.074
			c0-1.145,0.93-2.076,2.074-2.076s2.075,0.932,2.075,2.076C25.606,22.667,24.676,23.598,23.531,23.598z M30.125,19.013
			c0,0.867-0.705,1.573-1.573,1.573h-1.185c-0.422-1.728-1.98-3.014-3.836-3.014s-3.414,1.286-3.836,3.014h-7.39
			c-0.422-1.728-1.981-3.014-3.836-3.014s-3.415,1.286-3.836,3.014H3.448c-0.867,0-1.573-0.706-1.573-1.573V16
			c0-0.867,0.706-1.573,1.573-1.573h21.583c0.003,0,0.005,0,0.007,0c0.001,0,0.003,0,0.004,0h0.999c1.55,0,2.9,0.867,3.592,2.141
			h-0.076c-0.518,0-0.938,0.42-0.938,0.938s0.42,0.938,0.938,0.938h0.566c0,0.022,0.002,0.045,0.002,0.066V19.013L30.125,19.013z"/>
		<path d="M16.502,16.568h-1.004c-0.518,0-0.938,0.42-0.938,0.938s0.419,0.938,0.938,0.938h1.004c0.518,0,0.938-0.42,0.938-0.938
			S17.02,16.568,16.502,16.568z"/>
	</g>
</g>
</svg>
