<?xml version="1.0" encoding="utf-8"?>
<!-- Generator: Adobe Illustrator 16.0.0, SVG Export Plug-In . SVG Version: 6.00 Build 0)  -->
<!DOCTYPE svg PUBLIC "-//W3C//DTD SVG 1.1//EN" "http://www.w3.org/Graphics/SVG/1.1/DTD/svg11.dtd">
<svg version="1.1" id="Calque_1" xmlns="http://www.w3.org/2000/svg" xmlns:xlink="http://www.w3.org/1999/xlink" x="0px" y="0px"
	 width="20px" height="20px" viewBox="0 0 20 20" enable-background="new 0 0 20 20" xml:space="preserve">
<path fill-opacity="0.6" d="M13.387,10l5.912-5.912c0.936-0.935,0.936-2.452,0-3.387s-2.452-0.935-3.387,0L10,6.614L4.088,0.701
	c-0.935-0.935-2.452-0.935-3.386,0c-0.936,0.936-0.936,2.452,0,3.387L6.613,10l-5.912,5.912c-0.936,0.935-0.936,2.451,0,3.387
	C1.168,19.766,1.782,20,2.395,20s1.227-0.234,1.693-0.701L10,13.387l5.912,5.912C16.379,19.767,16.992,20,17.605,20
	c0.612,0,1.227-0.233,1.693-0.701c0.936-0.936,0.936-2.452,0-3.387L13.387,10z"/>
</svg>
