<?xml version="1.0" encoding="utf-8"?>
<!-- Generator: Adobe Illustrator 16.0.0, SVG Export Plug-In . SVG Version: 6.00 Build 0)  -->
<!DOCTYPE svg PUBLIC "-//W3C//DTD SVG 1.1//EN" "http://www.w3.org/Graphics/SVG/1.1/DTD/svg11.dtd">
<svg version="1.1" id="Calque_1" xmlns="http://www.w3.org/2000/svg" xmlns:xlink="http://www.w3.org/1999/xlink" x="0px" y="0px"
	 width="120px" height="116px" viewBox="0 0 120 116" enable-background="new 0 0 120 116" xml:space="preserve">
<rect fill="#C4C4C4" width="120" height="116"/>
<path fill="#FFFFFF" d="M36,52.921v21.179c0,3.232,2.625,5.858,5.858,5.858h36.285c3.232,0,5.857-2.626,5.857-5.858V52.921
	c0-3.076-2.498-5.574-5.574-5.574h-7.797l-0.187-0.813C69.688,43.272,66.818,41,63.468,41h-6.945c-3.34,0-6.21,2.272-6.975,5.535
	l-0.186,0.813h-7.788C38.498,47.348,36,49.855,36,52.921z M50.322,49.748c0.558,0,1.038-0.382,1.166-0.931l0.402-1.744
	c0.509-2.165,2.41-3.673,4.633-3.673h6.945c2.224,0,4.124,1.509,4.634,3.673l0.401,1.744c0.128,0.539,0.607,0.931,1.165,0.931h8.748
	c1.754,0,3.174,1.42,3.174,3.173v21.179c0,1.91-1.547,3.458-3.457,3.458H41.858c-1.91,0-3.458-1.548-3.458-3.458V52.921
	c0-1.753,1.42-3.173,3.174-3.173H50.322z"/>
<path fill="#FFFFFF" d="M44.121,56.478c0.888,0,1.607-0.719,1.607-1.606s-0.719-1.606-1.607-1.606c-0.887,0-1.606,0.719-1.606,1.606
	S43.233,56.478,44.121,56.478z"/>
<path fill="#FFFFFF" d="M60,73.797c5.555,0,10.08-4.525,10.08-10.08c0-5.554-4.525-10.08-10.08-10.08
	c-5.554,0-10.08,4.516-10.08,10.08C49.92,69.281,54.446,73.797,60,73.797z M60,56.037c4.232,0,7.68,3.448,7.68,7.68
	s-3.447,7.68-7.68,7.68c-4.232,0-7.68-3.447-7.68-7.68S55.768,56.037,60,56.037z"/>
<path fill="#FFFFFF" d="M95.5,36c-0.531,0-0.961-0.431-0.961-0.961V24.461H83.961c-0.53,0-0.961-0.431-0.961-0.961
	s0.431-0.961,0.961-0.961h10.578V11.961c0-0.531,0.43-0.961,0.961-0.961s0.961,0.431,0.961,0.961v10.577h10.577
	c0.53,0,0.962,0.431,0.962,0.961s-0.432,0.961-0.962,0.961H96.461v10.577C96.461,35.569,96.031,36,95.5,36z"/>
</svg>
