<?xml version="1.0" encoding="utf-8"?>
<!-- Generator: Adobe Illustrator 16.0.0, SVG Export Plug-In . SVG Version: 6.00 Build 0)  -->
<!DOCTYPE svg PUBLIC "-//W3C//DTD SVG 1.1//EN" "http://www.w3.org/Graphics/SVG/1.1/DTD/svg11.dtd">
<svg version="1.1" id="Calque_1" xmlns="http://www.w3.org/2000/svg" xmlns:xlink="http://www.w3.org/1999/xlink" x="0px" y="0px"
	 width="54px" height="54px" viewBox="0 0 54 54" enable-background="new 0 0 54 54" xml:space="preserve">
<circle fill="#64C0CE" cx="27.001" cy="27" r="25.834"/>
<g id="Calque_2" display="none">
	<line display="inline" fill="none" stroke="#000000" stroke-width="0.25" stroke-miterlimit="10" x1="0" y1="0" x2="54" y2="54"/>
	
		<line display="inline" fill="none" stroke="#000000" stroke-width="0.25" stroke-miterlimit="10" x1="54" y1="0" x2="0.016" y2="53.984"/>
</g>
<g id="Calque_1_2_">
	<g id="Calque_1_1_">
		<circle fill="none" stroke="#FFFFFF" stroke-width="2" stroke-miterlimit="10" cx="27.001" cy="27" r="25.338"/>
	</g>
	<path fill="#FFFFFF" stroke="#FFFFFF" stroke-width="0.5" stroke-miterlimit="10" d="M8,33.402
		c0.166-0.746,0.268-1.514,0.507-2.236c1.427-4.302,5.506-6.929,10.113-6.549c4.269,0.353,7.877,3.798,8.541,8.165
		c0.063,0.416,0.094,0.839,0.113,1.26c0.022,0.479-0.219,0.771-0.604,0.776c-0.382,0.005-0.619-0.274-0.632-0.76
		c-0.068-2.522-1.041-4.643-2.974-6.25c-2.465-2.054-5.288-2.585-8.298-1.479c-3.064,1.126-4.863,3.397-5.433,6.621
		c-0.06,0.34-0.074,0.69-0.091,1.036c-0.016,0.337-0.052,0.654-0.422,0.793C8.447,34.92,8.22,34.688,8,34.445
		C8,34.1,8,33.751,8,33.402z"/>
	<path fill="#FFFFFF" stroke="#FFFFFF" stroke-width="0.5" stroke-miterlimit="10" d="M40.215,30.313
		c3.282,0.016,5.938,2.685,5.928,5.963c-0.008,3.293-2.69,5.942-6.002,5.926c-3.25-0.02-5.908-2.706-5.896-5.961
		C34.258,32.964,36.939,30.301,40.215,30.313z M44.909,36.264c0.007-2.593-2.112-4.72-4.708-4.723
		c-2.58-0.003-4.703,2.102-4.717,4.674c-0.014,2.623,2.097,4.758,4.705,4.764C42.779,40.982,44.9,38.863,44.909,36.264z"/>
	<path fill="#FFFFFF" stroke="#FFFFFF" stroke-width="0.5" stroke-miterlimit="10" d="M17.653,22.186
		c-2.821,0.012-5.115-2.261-5.136-5.09c-0.021-2.824,2.255-5.138,5.069-5.154c2.854-0.017,5.159,2.25,5.172,5.087
		C22.771,19.876,20.497,22.173,17.653,22.186z M17.631,20.959c2.145,0.003,3.919-1.771,3.907-3.908
		c-0.012-2.135-1.763-3.882-3.894-3.885c-2.13-0.004-3.89,1.743-3.903,3.873C13.727,19.185,15.484,20.956,17.631,20.959z"/>
	<path fill="#FFFFFF" stroke="#FFFFFF" stroke-width="0.5" stroke-miterlimit="10" d="M31.188,22.186
		c-2.812,0.014-5.127-2.276-5.146-5.089c-0.019-2.814,2.271-5.138,5.078-5.155c2.848-0.018,5.167,2.259,5.185,5.085
		C36.318,19.86,34.027,22.171,31.188,22.186z M35.061,17.067c0.004-2.145-1.715-3.879-3.865-3.901
		c-2.143-0.022-3.907,1.737-3.909,3.894c-0.002,2.143,1.729,3.889,3.864,3.899C33.305,20.97,35.059,19.225,35.061,17.067z"/>
	<path fill="#FFFFFF" stroke="#FFFFFF" stroke-width="0.5" stroke-miterlimit="10" d="M31.395,24.567
		c2.771,0.058,5.256,1.202,7.201,3.496c0.082,0.097,0.163,0.189,0.229,0.295c0.172,0.271,0.118,0.609-0.117,0.808
		c-0.241,0.201-0.577,0.199-0.812-0.034c-0.203-0.199-0.373-0.433-0.566-0.642c-2.736-2.959-7.189-3.551-10.61-1.413
		c-0.528,0.331-0.882,0.324-1.105-0.02c-0.234-0.361-0.087-0.686,0.468-1.034C27.59,25.079,29.413,24.557,31.395,24.567z"/>
	<path fill="#FFFFFF" stroke="#FFFFFF" stroke-width="0.5" stroke-miterlimit="10" d="M39.587,36.88
		c-0.485,0-0.905,0.009-1.327-0.003c-0.455-0.011-0.73-0.256-0.727-0.625c0.004-0.37,0.285-0.605,0.736-0.609
		c0.42-0.004,0.842-0.002,1.313-0.002c0-0.449-0.003-0.88,0.001-1.309c0.004-0.461,0.229-0.729,0.606-0.729
		c0.381-0.002,0.605,0.256,0.613,0.725c0.006,0.42,0,0.84,0,1.313c0.447,0,0.862-0.002,1.278,0.002
		c0.481,0.002,0.772,0.231,0.774,0.609c0.004,0.379-0.283,0.618-0.766,0.626c-0.406,0.007-0.814,0.002-1.287,0.002
		c0,0.444,0.014,0.86-0.007,1.274c-0.009,0.179-0.024,0.428-0.138,0.515c-0.176,0.133-0.467,0.253-0.646,0.194
		c-0.182-0.059-0.387-0.331-0.412-0.532C39.545,37.87,39.587,37.396,39.587,36.88z"/>
</g>
</svg>
