<?xml version="1.0" encoding="utf-8"?>
<!-- Generator: Adobe Illustrator 16.0.0, SVG Export Plug-In . SVG Version: 6.00 Build 0)  -->
<!DOCTYPE svg PUBLIC "-//W3C//DTD SVG 1.1//EN" "http://www.w3.org/Graphics/SVG/1.1/DTD/svg11.dtd">
<svg version="1.1" id="Calque_1" xmlns="http://www.w3.org/2000/svg" xmlns:xlink="http://www.w3.org/1999/xlink" x="0px" y="0px"
	 width="32px" height="32px" viewBox="0 0 32 32" enable-background="new 0 0 32 32" xml:space="preserve">
<path d="M32,7.692V5.135c0-1.581-1.35-2.866-3.01-2.866h-5.174c-0.467-0.272-1.016-0.43-1.604-0.43H3.081
	C1.383,1.838,0,3.154,0,4.772v24.089c0,1.619,1.383,2.934,3.081,2.934h19.132c0.588,0,1.137-0.156,1.604-0.43h5.173
	c1.66,0,3.01-1.285,3.01-2.865v-2.559c0-0.877-0.416-1.662-1.07-2.189c0.654-0.525,1.07-1.311,1.07-2.188v-2.559
	c0-0.877-0.416-1.662-1.07-2.189c0.654-0.526,1.07-1.312,1.07-2.189V12.07c0-0.877-0.416-1.663-1.07-2.189
	C31.584,9.355,32,8.569,32,7.692z M23.871,28.861c0,0.871-0.744,1.58-1.658,1.58H3.081c-0.915,0-1.659-0.709-1.659-1.58V4.772
	c0-0.872,0.744-1.58,1.659-1.58h19.132c0.914,0,1.658,0.708,1.658,1.58V28.861z M30.578,28.5c0,0.832-0.713,1.512-1.588,1.512
	h-3.943c0.159-0.354,0.247-0.742,0.247-1.15V24.43h3.696c0.875,0,1.588,0.68,1.588,1.512V28.5z M30.578,21.564
	c0,0.832-0.713,1.512-1.588,1.512h-3.696v-5.582h3.696c0.875,0,1.588,0.678,1.588,1.512V21.564z M30.578,14.628
	c0,0.833-0.713,1.512-1.588,1.512h-3.696v-5.581h3.696c0.875,0,1.588,0.678,1.588,1.512V14.628z M30.578,7.692
	c0,0.833-0.713,1.512-1.588,1.512h-3.696V4.772c0-0.408-0.089-0.796-0.247-1.15h3.943c0.875,0,1.588,0.678,1.588,1.512V7.692z"/>
<path d="M21.463,22.346H3.831v1.355h17.632V22.346z"/>
<path d="M6.342,20.195h12.611c0.214,0,0.417-0.092,0.553-0.25c0.135-0.16,0.188-0.369,0.143-0.566
	c-0.342-1.527-1.24-2.906-2.51-3.885c0.832-0.977,1.297-2.207,1.297-3.478c0-3.04-2.597-5.513-5.789-5.513
	c-3.191,0-5.789,2.473-5.789,5.513c0,1.271,0.465,2.501,1.298,3.478c-1.271,0.979-2.169,2.357-2.51,3.885
	c-0.044,0.197,0.008,0.406,0.144,0.566C5.924,20.104,6.127,20.195,6.342,20.195z M9.607,16.167c0.188-0.112,0.311-0.302,0.33-0.514
	c0.02-0.21-0.064-0.418-0.229-0.561c-0.907-0.787-1.429-1.908-1.429-3.077c0-2.293,1.959-4.159,4.367-4.159s4.367,1.866,4.367,4.159
	c0,1.168-0.521,2.29-1.428,3.077c-0.165,0.143-0.25,0.351-0.23,0.561c0.02,0.211,0.143,0.401,0.331,0.514
	c1.058,0.631,1.87,1.579,2.315,2.674H7.292C7.736,17.746,8.55,16.798,9.607,16.167z"/>
<path d="M19.242,25.023H6.051v1.355h13.191V25.023z"/>
</svg>
