<?xml version="1.0" encoding="utf-8"?>
<!-- Generator: Adobe Illustrator 16.0.0, SVG Export Plug-In . SVG Version: 6.00 Build 0)  -->
<!DOCTYPE svg PUBLIC "-//W3C//DTD SVG 1.1//EN" "http://www.w3.org/Graphics/SVG/1.1/DTD/svg11.dtd">
<svg version="1.1" id="Calque_1" xmlns="http://www.w3.org/2000/svg" xmlns:xlink="http://www.w3.org/1999/xlink" x="0px" y="0px"
	 width="32px" height="32px" viewBox="0 0 32 32" enable-background="new 0 0 32 32" xml:space="preserve">
<path d="M20,31.165c-0.736,0-1.334-0.598-1.334-1.334v-5.332c0-1.471-1.195-2.666-2.666-2.666s-2.667,1.195-2.667,2.666v5.332
	c0,0.736-0.599,1.334-1.333,1.334H6c-1.104,0-2-0.896-2-2v-12C4,16.798,4.299,16.5,4.666,16.5c0.368,0,0.667,0.298,0.667,0.665v12
	c0,0.369,0.299,0.666,0.667,0.666h6v-5.332c0-2.205,1.795-4,4-4s4,1.795,4,4v5.332h6c0.367,0,0.666-0.297,0.666-0.666V17.833
	c0-0.369,0.299-0.668,0.666-0.668c0.369,0,0.668,0.299,0.668,0.668v11.332c0,1.104-0.898,2-2,2H20z"/>
<path d="M31.332,17.165c-0.178,0-0.344-0.068-0.471-0.193L16,2.109L1.139,16.972c-0.127,0.125-0.293,0.193-0.473,0.193
	c-0.178,0-0.345-0.068-0.472-0.193c-0.26-0.26-0.26-0.683,0-0.942L15.527,0.696C15.654,0.569,15.822,0.5,16,0.5
	s0.346,0.069,0.473,0.195l15.332,15.333c0.26,0.262,0.26,0.683,0,0.942C31.678,17.097,31.512,17.165,31.332,17.165z"/>
</svg>
