<?xml version="1.0" encoding="utf-8"?>
<!-- Generator: Adobe Illustrator 16.0.0, SVG Export Plug-In . SVG Version: 6.00 Build 0)  -->
<!DOCTYPE svg PUBLIC "-//W3C//DTD SVG 1.1//EN" "http://www.w3.org/Graphics/SVG/1.1/DTD/svg11.dtd">
<svg version="1.1" id="Calque_1" xmlns="http://www.w3.org/2000/svg" xmlns:xlink="http://www.w3.org/1999/xlink" x="0px" y="0px"
	 width="32px" height="32px" viewBox="0 0 32 32" enable-background="new 0 0 32 32" xml:space="preserve">
<image overflow="visible" width="56" height="56" xlink:href="../Documents/images/Projet_wagon/FridgeFriends/Component 1.png"  transform="matrix(0.5714 0 0 0.5714 0 0)">
</image>
<g>
	<path fill="none" stroke="#000000" stroke-linecap="round" stroke-linejoin="round" d="M24.312,31.496H7.688
		c-0.6,0.04-1.194-0.134-1.678-0.49c-0.484-0.355-0.828-0.872-0.969-1.457L3.334,18.162h25.332l-1.707,11.387
		c-0.141,0.585-0.483,1.102-0.968,1.457C25.507,31.362,24.912,31.536,24.312,31.496L24.312,31.496z"/>
	<path fill="none" stroke="#000000" stroke-linecap="round" stroke-linejoin="round" d="M2.666,18.162
		c-0.529,0-1.039-0.21-1.414-0.585s-0.586-0.884-0.586-1.415c0-0.53,0.211-1.039,0.586-1.414s0.885-0.586,1.414-0.586h26.668
		c0.529,0,1.039,0.211,1.414,0.586s0.586,0.884,0.586,1.414c0,0.531-0.211,1.04-0.586,1.415s-0.885,0.585-1.414,0.585H2.666z"/>
	<path fill="none" stroke="#000000" stroke-linecap="round" stroke-linejoin="round" d="M5.334,11.496l4.666-8"/>
	<path fill="none" stroke="#000000" stroke-linecap="round" stroke-linejoin="round" d="M26.666,11.496l-4.666-8"/>
	<path fill="none" stroke="#000000" stroke-linecap="round" stroke-linejoin="round" d="M10.334,21.496
		c0.065,0,0.13,0.02,0.185,0.057c0.055,0.036,0.098,0.088,0.122,0.149c0.025,0.061,0.032,0.128,0.02,0.192s-0.045,0.124-0.092,0.17
		c-0.046,0.047-0.105,0.079-0.17,0.092s-0.132,0.006-0.192-0.02c-0.062-0.024-0.113-0.067-0.149-0.122
		C10.02,21.96,10,21.896,10,21.83c0-0.089,0.035-0.174,0.098-0.236S10.245,21.496,10.334,21.496z"/>
	<path fill="none" stroke="#000000" stroke-linecap="round" stroke-linejoin="round" d="M21.666,21.496
		c0.066,0,0.131,0.02,0.186,0.057c0.055,0.036,0.098,0.088,0.123,0.149c0.025,0.061,0.031,0.128,0.02,0.192
		c-0.014,0.064-0.045,0.124-0.092,0.17c-0.047,0.047-0.105,0.079-0.171,0.092c-0.064,0.013-0.132,0.006-0.192-0.02
		c-0.061-0.024-0.113-0.067-0.149-0.122s-0.056-0.119-0.056-0.185c0-0.089,0.035-0.174,0.098-0.236S21.578,21.496,21.666,21.496z"/>
	<path fill="none" stroke="#000000" stroke-linecap="round" stroke-linejoin="round" d="M20.989,25.496
		c-0.548,0.82-1.29,1.494-2.161,1.959c-0.87,0.466-1.842,0.709-2.828,0.709c-0.988,0-1.959-0.243-2.83-0.709
		c-0.871-0.465-1.612-1.139-2.16-1.959"/>
</g>
</svg>
