<?xml version="1.0" encoding="utf-8"?>
<!-- Generator: Adobe Illustrator 16.0.0, SVG Export Plug-In . SVG Version: 6.00 Build 0)  -->
<!DOCTYPE svg PUBLIC "-//W3C//DTD SVG 1.1//EN" "http://www.w3.org/Graphics/SVG/1.1/DTD/svg11.dtd">
<svg version="1.1" id="Calque_1" xmlns="http://www.w3.org/2000/svg" xmlns:xlink="http://www.w3.org/1999/xlink" x="0px" y="0px"
	 width="27px" height="30px" viewBox="0 0 27 30" enable-background="new 0 0 27 30" xml:space="preserve">
<path fill="#242E48" fill-opacity="1" d="M13.499,18.813c-5.187,0-9.407-4.22-9.407-9.407S8.312,0,13.499,0
	c5.187,0,9.407,4.22,9.407,9.407S18.686,18.813,13.499,18.813z M13.499,1.98c-4.095,0-7.426,3.331-7.426,7.426
	s3.331,7.426,7.426,7.426s7.427-3.331,7.427-7.426S17.594,1.98,13.499,1.98z"/>
<path fill="#242E48" fill-opacity="1" d="M0.989,29.705c-0.148,0-0.292-0.031-0.424-0.097c-0.493-0.233-0.703-0.825-0.469-1.319
	c1.463-3.093,3.97-5.602,7.064-7.063c1.994-0.942,4.121-1.422,6.317-1.422c5.717,0,10.989,3.331,13.429,8.487
	c0.23,0.496,0.021,1.086-0.472,1.319c-0.137,0.063-0.279,0.095-0.426,0.095c-0.382,0-0.733-0.221-0.896-0.566
	c-2.113-4.467-6.682-7.354-11.636-7.354c-1.901,0-3.743,0.414-5.472,1.233c-2.679,1.268-4.854,3.441-6.121,6.121
	C1.721,29.484,1.369,29.705,0.989,29.705z"/>
</svg>
