<?xml version="1.0" encoding="utf-8"?>
<!-- Generator: Adobe Illustrator 16.0.0, SVG Export Plug-In . SVG Version: 6.00 Build 0)  -->
<!DOCTYPE svg PUBLIC "-//W3C//DTD SVG 1.1//EN" "http://www.w3.org/Graphics/SVG/1.1/DTD/svg11.dtd">
<svg version="1.1" id="Calque_1" xmlns="http://www.w3.org/2000/svg" xmlns:xlink="http://www.w3.org/1999/xlink" x="0px" y="0px"
	 width="24px" height="24px" viewBox="0 0 24 24" enable-background="new 0 0 24 24" xml:space="preserve">
<g>
	<path fill="#64C0CE" d="M18.479,12.301h-4.982c-0.631,0-1.145,0.506-1.145,1.129v2.331c-0.031,1.729,1.193,3.255,2.917,3.632
		c0.023,0.004,0.049,0.008,0.073,0.014v3.191h-1.846c-0.356,0-0.646,0.285-0.646,0.637c0,0.353,0.289,0.639,0.646,0.639h4.983
		c0.355,0,0.646-0.286,0.646-0.639c0-0.352-0.29-0.637-0.646-0.637h-1.848v-3.195c1.457-0.258,2.622-1.375,2.92-2.812
		c0.047-0.229,0.071-0.47,0.071-0.711v-2.45C19.623,12.807,19.109,12.301,18.479,12.301z M15.958,18.188
		c-0.149-0.002-0.293-0.018-0.424-0.043c-1.117-0.244-1.912-1.242-1.892-2.373v-2.194h4.689v2.304c0,0.148-0.016,0.303-0.047,0.458
		c-0.219,1.062-1.168,1.841-2.235,1.853c-0.022-0.002-0.045-0.006-0.063-0.006v0.147L15.958,18.188z"/>
	<path fill="#64C0CE" d="M13.262,9.805L11.23,7.408c-0.052-0.061-0.08-0.138-0.08-0.218V1.661c0-0.892-0.737-1.618-1.642-1.618
		H8.511c-0.905,0-1.643,0.726-1.643,1.618V7.19c0,0.079-0.028,0.157-0.082,0.218L4.759,9.805c-0.246,0.288-0.382,0.656-0.382,1.036
		v11.413c0,0.893,0.736,1.618,1.642,1.618H11.5c0.356,0,0.646-0.286,0.646-0.638c0-0.353-0.29-0.639-0.646-0.639H6.019
		c-0.096,0-0.185-0.035-0.252-0.104c-0.063-0.064-0.099-0.149-0.098-0.239V10.841c0-0.08,0.028-0.158,0.08-0.218l2.027-2.396
		C8.022,7.938,8.158,7.569,8.158,7.19V4.259h1.7V7.19c0,0.376,0.135,0.744,0.381,1.036l2.03,2.396
		c0.053,0.062,0.081,0.141,0.081,0.219c0,0.352,0.291,0.637,0.646,0.637s0.646-0.286,0.646-0.637
		C13.643,10.465,13.507,10.098,13.262,9.805z"/>
</g>
</svg>
