<?xml version="1.0" encoding="utf-8"?>
<!-- Generator: Adobe Illustrator 16.0.4, SVG Export Plug-In . SVG Version: 6.00 Build 0)  -->
<!DOCTYPE svg PUBLIC "-//W3C//DTD SVG 1.1//EN" "http://www.w3.org/Graphics/SVG/1.1/DTD/svg11.dtd">
<svg version="1.1" id="Calque_1" xmlns="http://www.w3.org/2000/svg" xmlns:xlink="http://www.w3.org/1999/xlink" x="0px" y="0px"
	 width="24px" height="24px" viewBox="0 0 24 24" enable-background="new 0 0 24 24" xml:space="preserve" fill="#242E48">
<path d="M23.758,13.876c0-2.345-1.908-4.253-4.253-4.253h-0.441L17.79,7.075c-0.548-1.097-1.938-1.955-3.163-1.955H7.873
	c-1.226,0-2.616,0.858-3.164,1.955L3.436,9.623H2.619c-1.311,0-2.377,1.065-2.377,2.376v2.252c0,1.311,1.066,2.377,2.377,2.377
	h1.042l0.037,0.153c0.301,1.235,1.4,2.099,2.673,2.099s2.372-0.863,2.673-2.099l0.037-0.153h5.838l0.037,0.152
	c0.302,1.236,1.4,2.1,2.673,2.1s2.371-0.863,2.673-2.1l0.037-0.152h1.042c1.311,0,2.377-1.066,2.377-2.377V13.876z M11.75,6.121
	h2.877c0.849,0,1.887,0.642,2.267,1.401l1.05,2.101H11.75V6.121z M5.605,7.522c0.38-0.76,1.418-1.401,2.268-1.401h2.877v3.502H4.556
	L5.605,7.522z M6.371,17.879c-0.966,0-1.751-0.785-1.751-1.75c0-0.967,0.785-1.753,1.751-1.753c0.964,0,1.75,0.785,1.751,1.75
	C8.121,17.094,7.335,17.879,6.371,17.879z M17.629,17.879c-0.966,0-1.751-0.785-1.751-1.75c0-0.967,0.785-1.753,1.751-1.753
	s1.751,0.786,1.751,1.753C19.38,17.094,18.595,17.879,17.629,17.879z M21.38,15.628h-1.041l-0.037-0.152
	C20,14.238,18.9,13.375,17.629,13.375s-2.371,0.863-2.673,2.101l-0.037,0.152H9.081l-0.037-0.153c-0.301-1.236-1.4-2.1-2.673-2.1
	s-2.372,0.863-2.673,2.1l-0.037,0.153H2.619c-0.759,0-1.376-0.618-1.376-1.377v-2.252c0-0.759,0.617-1.375,1.376-1.375h16.886
	c1.193,0,2.289,0.653,2.859,1.705l0.16,0.296h-0.393c-0.276,0-0.501,0.225-0.501,0.501s0.225,0.501,0.501,0.501h0.623l0.002,0.624
	C22.757,15.01,22.139,15.628,21.38,15.628z"/>
</svg>
