<?xml version="1.0" encoding="utf-8"?>
<!-- Generator: Adobe Illustrator 16.0.0, SVG Export Plug-In . SVG Version: 6.00 Build 0)  -->
<!DOCTYPE svg PUBLIC "-//W3C//DTD SVG 1.1//EN" "http://www.w3.org/Graphics/SVG/1.1/DTD/svg11.dtd">
<svg version="1.1" id="Calque_1" xmlns="http://www.w3.org/2000/svg" xmlns:xlink="http://www.w3.org/1999/xlink" x="0px" y="0px"
	 width="24px" height="24px" viewBox="0 0 24 24" enable-background="new 0 0 24 24" xml:space="preserve">
<g>
	<path fill="#64C0CE" d="M12.745,15.25c0,0.188,0.144,0.334,0.327,0.334c0.185,0,0.328-0.146,0.328-0.334v-1.131
		c0-0.186-0.145-0.334-0.328-0.334s-0.327,0.148-0.327,0.334V15.25z M13.072,15.447c-0.055,0-0.104-0.021-0.137-0.057
		C12.971,15.426,13.018,15.447,13.072,15.447c0.056,0,0.103-0.021,0.138-0.057C13.175,15.428,13.128,15.447,13.072,15.447z"/>
	<path fill="#64C0CE" d="M8.91,18.922L8.9,18.92c0.076-0.477-0.2-0.947-0.639-1.084c-0.047-0.025-0.114-0.059-0.19-0.064
		c-0.201-0.062-0.435-0.021-0.612,0.103c-0.198,0.104-0.338,0.31-0.371,0.553c-0.063,0.496,0.222,0.972,0.655,1.103
		c0.026,0.014,0.05,0.021,0.079,0.033l0.013,0.004c0.012,0.004,0.024,0.008,0.041,0.018c0.082,0.043,0.166,0.043,0.222,0.043h0.004
		c0.316,0,0.611-0.207,0.744-0.508l0.051,0.084V19.02h0.049l-0.043-0.074L8.91,18.922z M8.664,18.334
		c-0.001-0.002-0.001-0.004-0.002-0.004C8.663,18.33,8.663,18.332,8.664,18.334z M8.426,18.076
		c-0.005-0.004-0.011-0.006-0.016-0.008l-0.012-0.021C8.409,18.055,8.415,18.068,8.426,18.076z M8.138,19.184
		c0.078-0.004,0.152-0.031,0.214-0.078C8.289,19.152,8.216,19.18,8.138,19.184z M8.116,19.055c-0.021,0-0.043-0.002-0.068-0.01
		l-0.011-0.002l-0.01-0.006c-0.021-0.006-0.052-0.02-0.093-0.021c-0.209-0.074-0.342-0.285-0.305-0.483
		c0.021-0.084,0.055-0.13,0.121-0.166c0.02-0.011,0.089-0.041,0.158-0.041H7.98l0.021,0.004c0.016,0.01,0.039,0.022,0.072,0.041
		l0.028,0.01c0.194,0.039,0.32,0.246,0.279,0.457C8.35,18.965,8.239,19.055,8.116,19.055z M7.991,19.17
		c-0.02-0.006-0.04-0.021-0.082-0.021c0,0-0.001,0-0.002,0l0.01,0.002c0.025,0,0.044,0.009,0.054,0.013
		c0.015,0.006,0.015,0.006,0.013,0.006C7.985,19.168,7.99,19.17,7.991,19.17z M8.311,18.326c0.048,0.035,0.087,0.08,0.119,0.129
		C8.397,18.406,8.358,18.361,8.311,18.326z M7.498,18.5c0.014-0.059,0.035-0.107,0.066-0.15c-0.029,0.041-0.052,0.09-0.066,0.152
		C7.498,18.5,7.498,18.5,7.498,18.5z M7.5,18.705c0.006,0.025,0.02,0.047,0.028,0.07C7.52,18.752,7.506,18.73,7.5,18.705z
		 M7.631,18.955c-0.018-0.021-0.038-0.037-0.053-0.061C7.593,18.918,7.614,18.934,7.631,18.955z M7.795,19.09
		c-0.026-0.016-0.054-0.023-0.077-0.041C7.741,19.066,7.769,19.074,7.795,19.09z M8.311,19.451c-0.04,0.014-0.083,0.018-0.126,0.023
		C8.228,19.469,8.271,19.465,8.311,19.451z M8.514,18.865L8.514,18.865c-0.021,0.09-0.072,0.158-0.134,0.213
		C8.441,19.023,8.491,18.953,8.514,18.865z M8.514,18.795c0.004-0.047,0.009-0.094,0-0.139C8.522,18.701,8.518,18.748,8.514,18.795z
		 M8.442,18.469c0.025,0.041,0.04,0.09,0.054,0.137C8.482,18.559,8.468,18.51,8.442,18.469z M8.038,17.902l0.018,0.004
		c0.046,0.002,0.094,0.025,0.132,0.045l0.003,0.004c-0.048-0.023-0.096-0.049-0.144-0.049c-0.074-0.025-0.151-0.027-0.231-0.021
		c0.02-0.002,0.039-0.008,0.059-0.008C7.931,17.879,7.985,17.887,8.038,17.902z M7.758,17.896c-0.079,0.018-0.158,0.043-0.232,0.096
		c0.001-0.002,0.002-0.002,0.003-0.004C7.6,17.939,7.678,17.914,7.758,17.896z M7.252,18.365c-0.008,0.027-0.024,0.051-0.029,0.078
		c-0.009,0.065,0.004,0.129,0.009,0.192c-0.006-0.063-0.018-0.127-0.009-0.192C7.227,18.416,7.244,18.393,7.252,18.365z
		 M7.794,19.402c-0.041-0.012-0.074-0.041-0.112-0.062c0.04,0.021,0.074,0.05,0.118,0.062c0.021,0.011,0.037,0.017,0.053,0.021
		C7.839,19.422,7.823,19.416,7.794,19.402z M8.404,19.4c0.032-0.019,0.067-0.033,0.096-0.055C8.471,19.367,8.437,19.383,8.404,19.4z
		 M8.694,19.102c0.021-0.039,0.04-0.078,0.054-0.121l-0.003,0.025C8.733,19.039,8.712,19.07,8.694,19.102z M8.568,19.275
		c0.029-0.031,0.061-0.06,0.084-0.094C8.628,19.217,8.599,19.244,8.568,19.275z M8.764,18.695c-0.001-0.006,0-0.014,0-0.021
		c0.002,0.017,0.01,0.027,0.011,0.041L8.764,18.695z"/>
	<path fill="#64C0CE" d="M21.695,13.582c0-1.057-0.028-2.257-0.082-3.561c0-0.111-0.008-0.23-0.014-0.353
		c-0.009-0.125-0.016-0.253-0.016-0.385c-0.025-0.982-0.055-1.996-0.421-2.984c-0.231-0.598-0.642-1.102-1.038-1.564
		c-0.408-0.499-0.831-1.016-0.986-1.569c-0.021-0.183-0.045-0.372-0.052-0.555c0.328-0.108,0.548-0.415,0.548-0.784V0.951
		c0-0.472-0.361-0.843-0.822-0.843h-4.174c-0.461,0-0.824,0.371-0.824,0.843v0.877c0,0.352,0.229,0.668,0.547,0.781
		c-0.004,0.18-0.025,0.358-0.047,0.539c-0.155,0.561-0.574,1.076-0.992,1.591l-0.023,0.03c-0.388,0.485-0.791,0.988-0.985,1.532
		c-0.363,0.949-0.393,1.992-0.421,3.016c0,0.228,0,0.444-0.026,0.672c-0.056,1.117-0.084,2.275-0.109,3.565
		c-0.029,1.346-0.029,2.528-0.029,3.676c-0.002,0.006-0.004,0.012-0.007,0.02c-0.214-0.146-0.403-0.283-0.603-0.443
		c-0.13-0.086-0.265-0.094-0.411,0.008c-0.07,0.06-0.157,0.072-0.246,0.056V16.85l-0.091-0.031
		c-0.183-0.062-0.287-0.227-0.265-0.436c0-0.146-0.059-0.264-0.181-0.344l-0.303-0.172c-1.335-0.73-1.605-0.895-2.199-1.273
		c-0.313-0.16-0.728-0.096-0.952,0.135l-3.264,3.051c-0.03,0.009-0.051,0.023-0.076,0.048c-0.023,0.014-0.043,0.026-0.063,0.039
		c-0.017,0.014-0.032,0.022-0.076,0.051c-0.664,0.524-0.911,2.42-0.484,3.681c0.236,0.76,0.726,1.194,1.339,1.194l7.688-0.026
		c0.372,0.719,1.078,1.131,1.951,1.131c0.787,0,1.441-0.328,1.816-0.902c0.24,0.084,0.538,0.168,0.848,0.168
		c0.431,0,0.843-0.102,1.162-0.283h1.885c1.299,0,2.359-1.051,2.416-2.393C21.695,18.396,21.723,16.203,21.695,13.582z
		 M15.352,1.974v-1.17l0.002,1.17H15.352z M15.9,1.974v-1.17l0.002,1.17H15.9z M16.449,1.974v-1.17l0.002,1.17H16.449z
		 M16.999,1.974v-1.17l0.003,1.17H16.999z M17.548,1.974v-1.17l0.002,1.17H17.548z M18.098,1.974v-1.17l0.002,1.17H18.098z
		 M14.803,1.974v-1.17l0.002,1.17H14.803z M18.646,1.974v-1.17l0.002,1.17H18.646z M19.227,22.15h-1.176
		c0.051-0.088,0.102-0.183,0.145-0.281c0.421-0.084,0.847-0.195,1.268-0.33c0.762-0.271,1.271-1.016,1.271-1.854V8.948
		c0-0.208,0-0.842-3.98-0.842c-2.451,0-3.789,0.239-3.98,0.741c-0.01,0.021-0.026,0.056-0.026,0.101v3.448
		c0,0.188,0.144,0.334,0.327,0.334c0.185,0,0.328-0.146,0.328-0.334V9.477c0.638,0.189,1.755,0.286,3.324,0.286
		c1.584,0,2.699-0.096,3.323-0.284v10.208c0,0.551-0.334,1.057-0.81,1.227c-0.286,0.092-0.578,0.184-0.866,0.244
		c0.003-0.02,0.005-0.039,0.007-0.061c0.803-0.207,1.316-0.527,1.57-0.98c0.053-0.107,0.021-0.252-0.079-0.355l-0.036-0.025
		c-0.107-0.055-0.246-0.028-0.371,0.109c-0.176,0.305-0.561,0.549-1.066,0.688c-0.03-1.597-0.912-3.836-2.275-3.836
		c-0.337,0-0.673,0.149-1.002,0.442c-0.463-0.938-1.045-1.432-1.688-1.432c-0.383,0-0.727,0.162-1.046,0.496
		c0-0.828,0.004-1.686,0.027-2.617c0.027-1.283,0.055-2.432,0.109-3.536c0-0.109,0.006-0.219,0.015-0.331
		c0.006-0.115,0.013-0.232,0.015-0.358c0.027-0.956,0.055-1.945,0.373-2.792c0.19-0.474,0.559-0.934,0.912-1.376
		c0.495-0.6,0.957-1.196,1.152-1.887l0.005-0.051c0.022-0.212,0.045-0.421,0.052-0.614h3.359c0.008,0.209,0.029,0.416,0.052,0.599
		l0.005,0.061c0.17,0.696,0.664,1.299,1.102,1.831l0.104,0.131C20.023,5.706,20.33,6.088,20.5,6.54c0.32,0.85,0.35,1.81,0.376,2.75
		c0,0.262,0,0.488,0.026,0.74c0.057,1.353,0.082,2.505,0.082,3.529c0.05,2.32,0.039,4.445-0.026,6.89
		C20.932,21.402,20.172,22.15,19.227,22.15z M15.01,18.605c0.34-0.763,0.764-1.213,1.139-1.213c0.732,0,1.566,1.719,1.566,3.227
		c0,1.17-0.568,1.842-1.551,1.844c-0.197-0.023-0.387-0.045-0.559-0.094c0.088-0.299,0.129-0.619,0.129-1.016
		C15.734,20.467,15.443,19.373,15.01,18.605z M13.484,18.127c0.731,0,1.565,1.719,1.565,3.229c0.015,0.609-0.144,1.101-0.457,1.42
		c-0.269,0.275-0.651,0.42-1.108,0.42c-0.997,0-1.567-0.672-1.567-1.842C11.917,19.846,12.752,18.127,13.484,18.127z M14.682,17.725
		c-0.043,0.072-0.086,0.146-0.129,0.226c-0.33-0.349-0.683-0.519-1.066-0.519c-0.615,0-1.088,0.449-1.434,0.988
		c0.276-1.119,0.887-2.043,1.434-2.043C13.889,16.377,14.343,16.891,14.682,17.725z M19.512,8.939
		c-0.604,0.101-1.578,0.184-2.785,0.184c-1.219,0-2.15-0.084-2.728-0.175c0.608-0.097,1.558-0.175,2.729-0.175
		C17.963,8.751,18.93,8.833,19.512,8.939z M10.111,22.039l-6.267,0.025c-0.289,0-0.522-0.244-0.702-0.742
		c-0.005-0.012-0.012-0.041-0.016-0.064c-0.007-0.033-0.014-0.068-0.026-0.104c-0.004-0.047-0.018-0.078-0.035-0.103
		c-0.005-0.021-0.012-0.043-0.019-0.065c0-0.027,0-0.076-0.029-0.131c-0.002-0.029-0.008-0.068-0.026-0.105v-0.168
		c-0.054-0.738,0.052-1.549,0.255-1.98c0.018-0.021,0.027-0.043,0.037-0.062l0.083-0.101c0.011-0.002,0.022-0.002,0.038,0h0.029
		l0.051,0.027H3.5C4.672,19.275,7.946,20.953,10.111,22.039z M10.97,19.662c0.016-0.031,0.05-0.066,0.092-0.092
		c0.007-0.002,0.026-0.002,0.033-0.002l-0.015-0.014l0.091,0.055c0.023,0.012,0.048,0.024,0.063,0.037
		c0,0.112,0.001,0.219,0.013,0.319l0,0c-0.018,0-0.03-0.004-0.034-0.004l-0.027-0.012l-0.036-0.023
		C11.022,19.873,10.945,19.744,10.97,19.662z M11.251,19.096c-0.143-0.049-0.294-0.037-0.481,0.041
		c-0.17,0.07-0.281,0.205-0.357,0.443c-0.063,0.395,0.131,0.762,0.475,0.902c0.043,0.035,0.09,0.043,0.123,0.047
		c0.102,0.041,0.189,0.035,0.258,0.022c-0.04,0.287-0.062,0.558-0.062,0.802c0,0.178,0.011,0.344,0.032,0.492
		c-1.063-0.521-3.559-1.787-5.415-2.791c0.051-0.459-0.212-0.867-0.637-0.99c-0.281-0.117-0.61-0.056-0.839,0.147
		c-0.12-0.075-0.235-0.149-0.334-0.213l1.877-1.709L5.88,16.332c-0.063,0.461,0.195,0.893,0.623,1.027l0.019,0.008
		c0.008,0.004,0.019,0.008,0.027,0.012c0.009,0.002,0.02,0.006,0.029,0.008c0.076,0.033,0.148,0.033,0.2,0.033h0.005
		c0.341,0,0.638-0.215,0.75-0.537l0.01-0.002l0.007-0.059c0.062-0.484-0.19-0.916-0.629-1.057l-0.01-0.011H6.896
		c-0.005-0.002-0.01-0.004-0.014-0.006c-0.018-0.006-0.035-0.01-0.037-0.01c-0.106-0.035-0.218-0.035-0.333-0.015l0.45-0.41
		c0.028-0.028,0.107-0.049,0.133-0.035c0.384,0.242,0.651,0.402,1.173,0.697C8.24,15.986,8.217,15.986,8.187,16
		c-0.159,0.066-0.268,0.189-0.338,0.385H7.84l-0.01,0.059c-0.064,0.398,0.126,0.761,0.476,0.902
		c0.044,0.033,0.088,0.043,0.122,0.045c0.073,0.029,0.141,0.029,0.191,0.029h0.004c0.127,0,0.238-0.049,0.275-0.068
		c0.157-0.063,0.271-0.19,0.352-0.399l0.004-0.021l-0.002-0.019c0.031-0.138,0.02-0.267-0.013-0.39
		c0.021,0.011,0.036,0.021,0.057,0.031l0.129,0.074c0.03,0.416,0.306,0.773,0.708,0.92c0.253,0.117,0.545,0.127,0.783,0.033
		c0.195,0.133,0.393,0.268,0.571,0.404C11.367,18.396,11.288,18.77,11.251,19.096z M6.015,16.35
		c0.025-0.094,0.066-0.178,0.118-0.248c-0.051,0.07-0.092,0.152-0.118,0.25V16.35z M6.263,16.408c0.019-0.063,0.07-0.115,0.12-0.166
		c-0.047,0.047-0.096,0.094-0.12,0.172C6.263,16.414,6.262,16.41,6.263,16.408z M6.604,16.262c0.006,0.002,0.016,0.004,0.032,0.014
		l0.117,0.039c0.176,0.041,0.291,0.226,0.254,0.398C6.98,16.814,6.898,16.881,6.8,16.881c-0.021,0-0.042-0.004-0.072-0.012
		l-0.02-0.002l-0.046-0.023c-0.184-0.061-0.285-0.221-0.271-0.398c0.021-0.062,0.059-0.114,0.102-0.143
		C6.55,16.27,6.602,16.26,6.604,16.262z M7.14,16.746v0.002c-0.021,0.072-0.062,0.129-0.115,0.176
		C7.076,16.877,7.119,16.82,7.14,16.746z M6.998,16.947c-0.054,0.039-0.116,0.061-0.184,0.063
		C6.882,17.008,6.945,16.986,6.998,16.947z M6.267,16.531c0.003,0.02,0,0.043,0.005,0.062C6.267,16.574,6.27,16.551,6.267,16.531z
		 M6.361,16.781c0.062,0.084,0.146,0.152,0.256,0.191l0.057,0.024c-0.011-0.002-0.024-0.011-0.056-0.024
		C6.508,16.936,6.423,16.865,6.361,16.781z M6.315,16.701c0.008,0.018,0.012,0.039,0.022,0.055
		C6.327,16.74,6.323,16.719,6.315,16.701z M6.713,16.156c0.008,0,0.015,0,0.023,0.004L6.713,16.156z M6.425,16.186
		c0.001,0,0.001-0.002,0.002-0.002c0.033-0.018,0.067-0.024,0.101-0.035C6.495,16.158,6.466,16.162,6.425,16.186z M6.77,17.283
		c-0.044,0-0.092,0-0.142-0.023L6.62,17.256C6.671,17.283,6.721,17.283,6.77,17.283z M7.414,16.736
		c-0.002,0.022,0.004,0.043,0.001,0.065c-0.007,0.023-0.02,0.041-0.029,0.063c0.009-0.021,0.022-0.039,0.029-0.063
		C7.418,16.779,7.412,16.76,7.414,16.736z M6.894,15.9c-0.002,0-0.003-0.002-0.005-0.002h0.005c0.075,0.024,0.143,0.065,0.205,0.11
		C7.036,15.965,6.969,15.924,6.894,15.9z M6.811,15.871c-0.082-0.027-0.164-0.035-0.246-0.023c0.082-0.01,0.162-0.004,0.238,0.021
		l0.021,0.006l0.004,0.002C6.821,15.875,6.816,15.871,6.811,15.871z M8.238,16.494c0.001-0.002,0.003-0.004,0.004-0.004L8.238,16.5
		C8.239,16.498,8.237,16.494,8.238,16.494z M8.459,16.461c0.008-0.002,0.017-0.002,0.025-0.002l0.026,0.029h0.03l0.021,0.014
		c0.107,0.055,0.172,0.148,0.177,0.256l-0.006,0.068c-0.008,0.01-0.021,0.021-0.033,0.027c-0.01,0.004-0.045,0.01-0.081-0.008
		l-0.016-0.005L8.568,16.82c-0.137-0.062-0.201-0.188-0.198-0.286c0.019-0.025,0.047-0.052,0.078-0.066L8.459,16.461z M8.627,16.383
		l-0.002-0.002c0.084,0.043,0.151,0.109,0.197,0.188C8.778,16.492,8.712,16.426,8.627,16.383z M8.567,16.352L8.567,16.352
		C8.567,16.352,8.568,16.352,8.567,16.352L8.567,16.352z M8.474,16.326c0.004,0,0.01-0.002,0.012-0.002
		c0.003,0,0.006,0.002,0.008,0.002C8.487,16.326,8.48,16.326,8.474,16.326z M8.4,16.346l0.023,0.053l-0.047-0.047
		c-0.005,0.002-0.007,0.008-0.01,0.01c0.003-0.002,0.005-0.008,0.009-0.01C8.383,16.346,8.392,16.35,8.4,16.346z M8.509,16.943
		c-0.085-0.039-0.152-0.104-0.2-0.174C8.356,16.84,8.426,16.9,8.509,16.943z M8.3,16.758c-0.048-0.076-0.067-0.16-0.061-0.242
		C8.232,16.6,8.253,16.684,8.3,16.758z M8.825,16.578c0.038,0.074,0.058,0.16,0.046,0.254C8.883,16.742,8.863,16.654,8.825,16.578z
		 M8.837,16.912c-0.01,0.012-0.022,0.018-0.032,0.027C8.814,16.93,8.827,16.924,8.837,16.912z M8.238,16.127
		c-0.066,0.027-0.12,0.068-0.165,0.123c0.047-0.057,0.101-0.098,0.165-0.125c0.025-0.01,0.043-0.01,0.065-0.016
		C8.282,16.115,8.261,16.117,8.238,16.127z M8.376,17.229c0.028,0.027,0.055,0.027,0.083,0.027c0.052,0.027,0.103,0.027,0.155,0.027
		c-0.046,0-0.095,0-0.144-0.021l-0.025-0.006c-0.023-0.002-0.043-0.004-0.062-0.021l-0.019-0.01
		c-0.051-0.021-0.093-0.053-0.135-0.086C8.275,17.174,8.321,17.207,8.376,17.229z M8.176,17.107
		c-0.044-0.039-0.077-0.088-0.109-0.137C8.099,17.02,8.132,17.066,8.176,17.107z M8.036,16.93c-0.011-0.02-0.014-0.047-0.023-0.068
		C8.022,16.883,8.025,16.91,8.036,16.93z M7.966,16.463L7.966,16.463c0.006-0.02,0.016-0.029,0.023-0.045
		C7.981,16.434,7.972,16.445,7.966,16.463z M8.838,17.23c-0.033,0.018-0.114,0.049-0.205,0.053
		C8.71,17.281,8.785,17.256,8.838,17.23z M9.007,17.107c-0.028,0.031-0.065,0.051-0.099,0.072
		C8.942,17.158,8.979,17.139,9.007,17.107z M9.118,16.889c0.002-0.006,0-0.012,0.001-0.018c-0.001,0.006,0,0.012-0.001,0.02V16.889z
		"/>
</g>
</svg>
