<?xml version="1.0" encoding="utf-8"?>
<!-- Generator: Adobe Illustrator 16.0.0, SVG Export Plug-In . SVG Version: 6.00 Build 0)  -->
<!DOCTYPE svg PUBLIC "-//W3C//DTD SVG 1.1//EN" "http://www.w3.org/Graphics/SVG/1.1/DTD/svg11.dtd">
<svg version="1.1" id="Calque_1" xmlns="http://www.w3.org/2000/svg" xmlns:xlink="http://www.w3.org/1999/xlink" x="0px" y="0px"
	 width="18px" height="17px" viewBox="0 0 18 17" enable-background="new 0 0 18 17" xml:space="preserve">
<path d="M5.211,0.012c-0.525,0.05-1.191,0.249-1.918,0.57C1.81,1.238,0.881,1.952,0.716,2.56C0.684,2.678,0.683,2.839,0.713,2.935
	c0.019,0.058,0.638,1.401,0.652,1.412c0.002,0.003,0.078-0.069,0.17-0.158C1.87,3.862,2.37,3.457,2.8,3.165
	C4.01,2.342,5.48,1.762,7.01,1.506C7.18,1.477,7.358,1.45,7.405,1.445c0.044-0.005,0.083-0.012,0.083-0.016
	c0-0.002-0.256-0.271-0.568-0.595C6.294,0.187,6.254,0.152,6.02,0.077C5.802,0.007,5.516-0.017,5.211,0.012z"/>
<path d="M12.161,0.017c-0.178,0.026-0.333,0.076-0.463,0.149c-0.1,0.058-0.171,0.125-0.688,0.658
	c-0.315,0.328-0.578,0.599-0.578,0.603c0,0.005,0.039,0.012,0.085,0.017c0.045,0.005,0.21,0.03,0.361,0.056
	c1.396,0.23,2.72,0.718,3.885,1.431c0.553,0.339,1.182,0.827,1.621,1.256c0.094,0.089,0.169,0.161,0.171,0.158
	c0.014-0.011,0.635-1.354,0.653-1.412c0.03-0.095,0.029-0.256-0.004-0.375c-0.125-0.461-0.691-0.988-1.614-1.5
	c-0.684-0.381-1.474-0.718-2.085-0.894c-0.172-0.047-0.46-0.109-0.645-0.135C12.658,0,12.317-0.006,12.161,0.017z"/>
<path d="M8.34,2.036C6.994,2.113,5.636,2.46,4.471,3.024c-2.359,1.143-3.969,3.1-4.376,5.321C0.017,8.774,0,8.98,0,9.477
	c0,0.497,0.018,0.71,0.095,1.131c0.343,1.861,1.531,3.548,3.326,4.726c1.218,0.799,2.657,1.319,4.179,1.512
	c0.513,0.065,0.765,0.08,1.361,0.08c0.599,0,0.851-0.015,1.361-0.08c2.238-0.286,4.271-1.272,5.684-2.764
	c0.963-1.012,1.588-2.205,1.82-3.474c0.079-0.421,0.096-0.634,0.096-1.131c0-0.496-0.017-0.702-0.096-1.131
	c-0.34-1.854-1.521-3.538-3.31-4.717c-1.418-0.936-3.151-1.492-4.971-1.594C9.265,2.021,8.621,2.021,8.34,2.036z M9.597,3.06
	c1.544,0.11,2.941,0.568,4.156,1.362c0.539,0.352,1.071,0.815,1.481,1.285c1.234,1.414,1.719,3.175,1.35,4.908
	c-0.299,1.406-1.194,2.724-2.49,3.678c-0.557,0.409-1.097,0.706-1.774,0.98c-2.104,0.854-4.606,0.854-6.707,0.006
	c-0.161-0.065-0.358-0.15-0.438-0.188c-1.716-0.809-2.988-2.103-3.591-3.652C1.187,10.42,1.109,9.292,1.36,8.233
	c0.193-0.813,0.556-1.55,1.119-2.281c0.412-0.533,1.057-1.118,1.689-1.53c1.203-0.788,2.606-1.249,4.13-1.362
	C8.621,3.037,9.271,3.037,9.597,3.06z"/>
<path d="M8.758,4.084c-0.171,0.057-0.304,0.161-0.366,0.29L8.355,4.449L8.35,6.708L8.347,8.967L5.621,8.97L2.895,8.974L2.79,9.017
	C2.665,9.068,2.551,9.163,2.492,9.27C2.454,9.335,2.449,9.36,2.449,9.477s0.005,0.143,0.042,0.207
	c0.08,0.14,0.228,0.245,0.404,0.282c0.083,0.019,0.438,0.021,3.113,0.021c2.466,0,3.031-0.004,3.096-0.019
	c0.189-0.041,0.328-0.136,0.411-0.282l0.051-0.089V7.023V4.449L9.528,4.374C9.476,4.267,9.356,4.163,9.226,4.109
	c-0.092-0.038-0.124-0.043-0.25-0.048C8.866,4.061,8.815,4.064,8.758,4.084z"/>
</svg>
