<?xml version="1.0" encoding="utf-8"?>
<!-- Generator: Adobe Illustrator 16.0.0, SVG Export Plug-In . SVG Version: 6.00 Build 0)  -->
<!DOCTYPE svg PUBLIC "-//W3C//DTD SVG 1.1//EN" "http://www.w3.org/Graphics/SVG/1.1/DTD/svg11.dtd">
<svg version="1.1" id="Calque_1" xmlns="http://www.w3.org/2000/svg" xmlns:xlink="http://www.w3.org/1999/xlink" x="0px" y="0px"
	 width="24px" height="24px" viewBox="0 0 24 24" enable-background="new 0 0 24 24" xml:space="preserve">
<g>
	<path fill="#64C0CE" d="M11.568,6.568c0.168,0.068,0.345,0.102,0.526,0.102h0.004c0.317-0.001,0.626-0.11,0.873-0.308
		c0.246-0.198,0.416-0.475,0.479-0.784c0.06-0.306,0.011-0.626-0.14-0.902c-0.151-0.273-0.396-0.489-0.691-0.609
		c-0.293-0.118-0.621-0.132-0.926-0.043c-0.304,0.09-0.569,0.283-0.747,0.541c-0.178,0.26-0.258,0.575-0.226,0.887
		c0.032,0.311,0.173,0.603,0.399,0.823C11.248,6.401,11.399,6.5,11.568,6.568z M12.153,5.543c0.083-0.082,0.13-0.19,0.13-0.306
		c0-0.117-0.047-0.225-0.13-0.306c-0.045-0.043-0.098-0.076-0.155-0.097c0.1-0.019,0.204-0.009,0.297,0.029
		c0.094,0.038,0.173,0.101,0.229,0.181c0.057,0.083,0.086,0.178,0.086,0.273c0,0.096-0.03,0.19-0.084,0.272
		c-0.058,0.083-0.137,0.146-0.23,0.184c-0.094,0.039-0.194,0.051-0.299,0.028c-0.099-0.019-0.189-0.065-0.262-0.136
		c-0.006-0.006-0.012-0.012-0.019-0.019C11.865,5.693,12.04,5.654,12.153,5.543z M12.094,6.471L12.094,6.471L12.094,6.471
		L12.094,6.471z"/>
	<path fill="#64C0CE" d="M9.584,12.174l0.821,0.401l0.048-0.001c0.368-0.008,0.708-0.327,0.962-0.603
		c0.582-0.627,0.916-1.302,0.993-2.008c0.992-1.156,3.078-3.991,2.104-6.434l-0.068-0.175l-0.18-0.068
		c-0.652-0.248-1.318-0.374-1.975-0.374c-2.168,0-3.588,1.366-3.587,1.366C8.617,4.359,8.533,4.444,8.45,4.53L8.336,4.644H5.323
		C5.25,4.645,5.18,4.663,5.122,4.694c-0.064,0.033-0.12,0.083-0.16,0.144C4.921,4.9,4.898,4.969,4.892,5.039
		c-0.005,0.06,0.003,0.12,0.022,0.175l0.004,0.011C4.92,5.23,4.922,5.235,4.924,5.24l0.005,0.01c0.07,0.174,0.278,0.776,0.015,1.24
		L4.896,6.579c-0.047,0.09-0.103,0.197-0.16,0.315L4.314,7.792c-0.423,0.943-0.885,2.032-0.98,2.255
		c-0.023,0.055-0.035,0.116-0.034,0.171c0,0.057,0.013,0.116,0.042,0.18c0.026,0.052,0.06,0.098,0.105,0.137
		c0.043,0.038,0.094,0.066,0.151,0.086l0.749,0.244c-0.207,0.478-0.371,0.974-0.49,1.478c-0.325-0.05-0.757-0.1-1.213-0.1
		c-1.067,0-1.873,0.256-2.392,0.761c-0.15,0.146-0.24,0.367-0.24,0.592c0,0.199,0.071,0.506,0.407,0.834
		c0.337,0.329,1.008,0.551,1.995,0.661c0.068,0.603,0.242,1.521,0.681,1.949c0.268,0.261,0.553,0.394,0.848,0.394
		c0.042,0,0.083-0.004,0.126-0.009C4.24,17.4,4.4,17.328,4.538,17.209c0.909-0.889,0.848-2.468,0.695-3.462
		c0.146-0.011,0.297-0.024,0.452-0.044l0.834,0.813c0.081,0.08,0.192,0.125,0.305,0.125l0.056-0.002
		c0.065-0.008,0.127-0.031,0.186-0.068c0.053-0.037,0.1-0.086,0.131-0.139l0.82-1.328c0.408-0.162,0.806-0.347,1.182-0.552
		L9.584,12.174z M3.941,16.579c-0.02,0-0.096-0.011-0.233-0.144C3.447,16.18,3.28,15.234,3.25,14.673
		c-0.008-0.108-0.055-0.209-0.127-0.276c-0.074-0.073-0.174-0.119-0.283-0.127c-0.593-0.029-1.546-0.189-1.809-0.444
		c-0.14-0.138-0.148-0.211-0.161-0.211c-0.001,0-0.002,0.001-0.002,0.001c0.346-0.336,0.961-0.514,1.779-0.514
		c0.481,0,0.925,0.062,1.199,0.108c0.045,0.108,0.112,0.208,0.198,0.293c0.086,0.087,0.188,0.151,0.3,0.197
		C4.456,14.323,4.65,15.896,3.941,16.579z M10.773,11.392l-0.045,0.052c-0.035,0.037-0.067,0.069-0.097,0.096
		c0.016-0.318,0.094-0.863,0.271-1.521l0.627-0.7C11.62,9.811,11.55,10.554,10.773,11.392z M4.645,12.874
		c-0.004-1.02,1.962-5.349,4.665-7.986c0.012-0.011,1.179-1.117,2.97-1.117c0.492,0,0.99,0.084,1.482,0.25
		c0.521,1.632-0.605,3.552-1.492,4.729c-0.05-0.144-0.113-0.285-0.191-0.423C12.09,8.323,12.1,8.318,12.11,8.313
		c0.102-0.047,0.18-0.131,0.225-0.245c0.036-0.105,0.03-0.219-0.016-0.32c-0.046-0.102-0.131-0.18-0.243-0.224
		c-1.614-0.568-1.983-1.636-2.058-1.949C10,5.463,9.936,5.36,9.842,5.293C9.768,5.24,9.679,5.211,9.586,5.211L9.519,5.217
		c-0.115,0.017-0.22,0.08-0.286,0.169C9.163,5.479,9.135,5.594,9.151,5.68l0.006,0.052c0.086,0.397,0.494,1.683,2.235,2.446
		c-0.013,0.012-0.026,0.023-0.038,0.037l-1.172,1.306c-0.046,0.052-0.078,0.113-0.09,0.166c-0.146,0.484-0.249,0.984-0.308,1.486
		c-2.222,1.563-4.276,1.733-5.062,1.733L4.645,12.874z M5.901,5.504h1.674c-1.081,1.312-2.113,2.949-2.879,4.572L4.315,9.952
		C4.658,9.16,5.4,7.448,5.703,6.916C5.991,6.413,5.973,5.878,5.901,5.504z"/>
	<path fill="#64C0CE" d="M19.582,7.118c-0.05-0.008-0.1-0.012-0.184-0.018L17.863,7c-0.034-0.005-0.066-0.009-0.1-0.011
		c-0.037-0.003-0.072-0.004-0.104-0.003l-0.146-0.007c-0.029,0-0.057,0.003-0.084,0.005c-0.201,0-0.377,0.011-0.563,0.035
		c-0.008,0.001-0.854,0.157-1.779,0.833c-0.832,0.608-1.898,1.777-2.266,3.893c-0.067,0.428-0.139,0.871-0.405,1.614
		c-0.243,0.676-0.704,1.275-1.36,1.781c-0.035,0.021-0.06,0.049-0.085,0.077c-0.01,0.013-0.052,0.058-0.167,0.113l-0.257,0.159
		c-0.967,0.582-1.593,1.457-1.814,2.562c-0.008,0.063-0.015,0.128-0.019,0.188c-0.063,0.88,0.255,1.671,0.955,2.313
		c0.252,0.191,0.531,0.331,0.83,0.418l0.069,0.021c0.283,0.08,0.588,0.121,0.908,0.121c0.084,0,0.17-0.004,0.224-0.01l0.904,0.088
		c0.17,0.024,0.348,0.037,0.528,0.037c0.493,0,1.028-0.094,1.623-0.289c3.13-1.297,5.099-2.646,6.201-3.554
		c1.161-0.961,1.636-1.642,1.672-1.696c0.748-0.869,1.188-1.946,1.272-3.115C24.102,9.776,22.197,7.379,19.582,7.118z
		 M11.071,18.999l0.183-0.097l-0.019-0.135c-0.007-0.08-0.01-0.162-0.009-0.248c-0.001-0.082,0.008-0.172,0.012-0.215
		c0.042-0.209,0.104-0.408,0.184-0.595c0.152-0.354,0.38-0.674,0.679-0.949l0.717,1.628l0.783-0.369l-0.785-1.778l0.01-0.007
		c0.193-0.096,0.339-0.2,0.415-0.295c0.062-0.047,0.118-0.094,0.177-0.144l0.873,1.983l0.781-0.372l-0.995-2.263
		c0.356-0.42,0.628-0.884,0.808-1.377c0.293-0.822,0.377-1.332,0.447-1.78l0.014-0.069c0.014-0.073,0.026-0.145,0.043-0.222
		c0.012-0.064,0.026-0.125,0.045-0.191l0.028-0.111c0.062-0.231,0.136-0.453,0.218-0.663l0.023-0.058
		c0.049-0.116,0.105-0.238,0.176-0.379l0.025-0.046c0.051-0.103,0.111-0.208,0.188-0.33c0.032-0.052,0.064-0.102,0.115-0.172
		c0.029-0.043,0.059-0.084,0.094-0.135l0.043-0.053l-0.156-0.122l0.19,0.079l0.079-0.099c0.034-0.04,0.066-0.08,0.104-0.123
		c0.039-0.043,0.08-0.086,0.123-0.13c0.088-0.091,0.168-0.168,0.252-0.24c0.099-0.088,0.203-0.172,0.312-0.251
		c0.649-0.474,1.239-0.638,1.412-0.679c0.157-0.018,0.312-0.027,0.46-0.027c0.074,0,0.148,0.002,0.268,0.01
		c0.02,0.001,0.038,0.002,0.09,0.01c2.166,0.212,3.733,2.201,3.567,4.527c-0.069,0.978-0.44,1.879-1.069,2.609l-0.035,0.044
		c-0.045,0.065-0.471,0.67-1.522,1.539c-1.056,0.868-2.948,2.164-5.96,3.412c-0.641,0.21-1.236,0.28-1.736,0.202
		c-0.146-0.021-0.283-0.055-0.415-0.104l-0.027-0.011c-0.156-0.061-0.296-0.139-0.411-0.223c-0.296-0.277-0.492-0.592-0.58-0.928
		l-0.021-0.095L11.071,18.999z M16.747,7.963c-0.134,0.096-0.259,0.2-0.375,0.302c-0.095,0.083-0.194,0.177-0.295,0.281
		c-0.054,0.052-0.104,0.11-0.149,0.161c-0.044,0.046-0.086,0.096-0.119,0.139L15.771,8.89c-0.035,0.041-0.066,0.082-0.096,0.12
		l-0.063,0.083c-0.031,0.042-0.061,0.083-0.098,0.138l-0.148,0.222c-0.09,0.141-0.172,0.286-0.258,0.454
		c-0.068,0.134-0.137,0.281-0.207,0.451L14.884,10.4c-0.101,0.25-0.188,0.519-0.262,0.801l-0.024,0.092
		c-0.02,0.078-0.037,0.155-0.05,0.222c-0.024,0.103-0.045,0.21-0.067,0.344c-0.068,0.428-0.14,0.872-0.405,1.612
		c-0.244,0.678-0.706,1.279-1.37,1.786c-0.027,0.021-0.053,0.046-0.078,0.077c-0.006,0.008-0.045,0.052-0.172,0.113l-0.204,0.123
		l0.102,0.172l-0.148-0.141c-0.968,0.584-1.594,1.465-1.812,2.56c-0.008,0.062-0.015,0.124-0.021,0.192
		c-0.003,0.061-0.005,0.121-0.003,0.166c-0.002,0.096,0.002,0.196,0.009,0.307l0.01,0.163l0.012,0.012
		c0.003,0.021,0.006,0.04,0.009,0.062c0.008,0.043,0.016,0.082,0.021,0.101l0.025,0.11c0.017,0.063,0.036,0.125,0.062,0.192
		l0.097,0.243c0.017,0.037,0.033,0.07,0.062,0.126l0.191,0.312c0.004,0.006,0.009,0.014,0.014,0.021
		c-0.037-0.01-0.074-0.02-0.111-0.029c-0.219-0.065-0.406-0.158-0.556-0.269c-0.466-0.435-0.679-0.964-0.636-1.574l0.01-0.112
		c0.168-0.83,0.645-1.485,1.428-1.961l0.159-0.101c0.189-0.093,0.333-0.198,0.414-0.295c0.791-0.611,1.343-1.343,1.642-2.171
		c0.297-0.826,0.379-1.336,0.449-1.784c0.252-1.451,0.896-2.566,1.916-3.312c0.473-0.346,0.922-0.528,1.18-0.614L16.747,7.963z"/>
	<path fill="#64C0CE" d="M19.82,14.285c0.029,0.002,0.06,0.003,0.088,0.003c0.854,0,1.578-0.841,1.654-1.915
		c0.045-0.624-0.135-1.218-0.494-1.63c-0.26-0.3-0.602-0.478-0.959-0.502c-0.883-0.055-1.664,0.801-1.743,1.913
		c-0.044,0.624,0.136,1.219,0.493,1.631C19.124,14.088,19.457,14.261,19.82,14.285z M20.016,10.919L20.016,10.919l0.032,0.195
		c0.177,0.012,0.306,0.121,0.382,0.21c0.201,0.23,0.305,0.6,0.276,0.989c-0.044,0.606-0.397,1.1-0.824,1.1h-0.001
		c-0.175-0.013-0.304-0.121-0.382-0.21c-0.2-0.23-0.304-0.602-0.274-0.99c0.043-0.607,0.398-1.101,0.791-1.101V10.919z"/>
	<path fill="#64C0CE" d="M18.956,15.986c0.041,0.003,0.083,0.005,0.126,0.005c0.346,0,0.695-0.101,1.011-0.288l0.165-0.1
		l-0.421-0.76l-0.177,0.104c-0.186,0.11-0.378,0.167-0.574,0.167l-0.07-0.002c-0.297-0.021-0.576-0.172-0.806-0.438
		c-0.377-0.432-0.569-1.111-0.521-1.816l0.014-0.197L16.848,12.6l-0.015,0.2c-0.067,0.944,0.201,1.841,0.737,2.458
		C17.953,15.699,18.434,15.951,18.956,15.986z"/>
</g>
</svg>
