<?xml version="1.0" encoding="utf-8"?>
<!-- Generator: Adobe Illustrator 16.0.4, SVG Export Plug-In . SVG Version: 6.00 Build 0)  -->
<!DOCTYPE svg PUBLIC "-//W3C//DTD SVG 1.1//EN" "http://www.w3.org/Graphics/SVG/1.1/DTD/svg11.dtd">
<svg version="1.1" id="Calque_1" xmlns="http://www.w3.org/2000/svg" xmlns:xlink="http://www.w3.org/1999/xlink" x="0px" y="0px"
	 width="24px" height="24px" viewBox="0 0 24 24" enable-background="new 0 0 24 24" xml:space="preserve">
<g>
	<path d="M11.568,6.568c0.168,0.068,0.345,0.102,0.526,0.102h0.004c0.317-0.001,0.627-0.11,0.872-0.308
		c0.247-0.198,0.417-0.475,0.48-0.784c0.06-0.306,0.011-0.626-0.14-0.902c-0.151-0.273-0.396-0.489-0.691-0.609
		c-0.293-0.118-0.621-0.132-0.926-0.043c-0.304,0.09-0.569,0.283-0.747,0.541c-0.178,0.26-0.258,0.575-0.226,0.887
		c0.032,0.311,0.173,0.603,0.399,0.823C11.248,6.401,11.399,6.5,11.568,6.568z M12.153,5.543c0.083-0.082,0.13-0.19,0.13-0.306
		c0-0.117-0.047-0.225-0.13-0.306c-0.045-0.043-0.098-0.076-0.155-0.097c0.1-0.019,0.204-0.009,0.297,0.029
		c0.094,0.038,0.173,0.101,0.229,0.181c0.056,0.083,0.085,0.178,0.085,0.273c0,0.096-0.03,0.19-0.084,0.272
		c-0.057,0.083-0.137,0.146-0.23,0.184c-0.094,0.039-0.194,0.051-0.299,0.028c-0.099-0.019-0.189-0.065-0.262-0.136
		c-0.006-0.006-0.012-0.012-0.019-0.019C11.865,5.693,12.04,5.654,12.153,5.543z M12.094,6.471L12.094,6.471L12.094,6.471
		L12.094,6.471z"/>
	<path d="M9.584,12.174l0.821,0.401l0.048-0.001c0.368-0.008,0.708-0.327,0.962-0.603c0.582-0.627,0.916-1.302,0.993-2.008
		c0.992-1.156,3.079-3.991,2.104-6.434l-0.069-0.175l-0.179-0.068c-0.653-0.248-1.318-0.374-1.975-0.374
		c-2.168,0-3.588,1.366-3.587,1.366C8.617,4.359,8.533,4.444,8.45,4.53L8.336,4.644H5.323C5.25,4.645,5.18,4.663,5.122,4.694
		c-0.064,0.033-0.12,0.083-0.16,0.144c-0.041,0.062-0.064,0.131-0.07,0.201c-0.005,0.06,0.003,0.12,0.022,0.175l0.004,0.011
		c0.002,0.005,0.004,0.01,0.006,0.015L4.929,5.25c0.07,0.174,0.278,0.776,0.015,1.24L4.896,6.579
		c-0.047,0.09-0.103,0.197-0.16,0.315L4.314,7.792c-0.423,0.943-0.885,2.032-0.98,2.255c-0.023,0.055-0.035,0.116-0.034,0.171
		c0,0.057,0.013,0.116,0.042,0.18c0.026,0.052,0.06,0.098,0.105,0.137c0.043,0.038,0.094,0.066,0.151,0.086l0.749,0.244
		c-0.207,0.478-0.371,0.974-0.49,1.478c-0.325-0.05-0.757-0.1-1.213-0.1c-1.067,0-1.873,0.256-2.392,0.761
		c-0.15,0.146-0.24,0.367-0.24,0.592c0,0.199,0.071,0.506,0.407,0.834c0.337,0.329,1.008,0.551,1.995,0.661
		c0.068,0.603,0.242,1.52,0.681,1.949c0.268,0.261,0.553,0.393,0.848,0.393c0.042,0,0.083-0.003,0.126-0.008
		c0.171-0.024,0.331-0.097,0.469-0.216c0.909-0.889,0.848-2.468,0.695-3.462c0.146-0.011,0.297-0.025,0.452-0.044l0.834,0.812
		c0.081,0.081,0.192,0.126,0.305,0.126l0.056-0.002c0.065-0.008,0.127-0.031,0.186-0.069c0.053-0.037,0.1-0.085,0.131-0.139
		l0.82-1.328c0.408-0.161,0.806-0.346,1.182-0.551L9.584,12.174z M3.941,16.579c-0.02,0-0.096-0.01-0.233-0.144
		c-0.261-0.256-0.428-1.2-0.458-1.762c-0.008-0.109-0.055-0.209-0.127-0.277c-0.074-0.073-0.174-0.118-0.283-0.126
		c-0.593-0.03-1.546-0.19-1.809-0.445c-0.14-0.138-0.148-0.211-0.161-0.211c-0.001,0-0.002,0.001-0.002,0.001
		c0.346-0.336,0.961-0.514,1.779-0.514c0.481,0,0.925,0.062,1.199,0.109c0.045,0.108,0.112,0.208,0.198,0.293
		C4.13,13.59,4.232,13.655,4.344,13.7C4.456,14.323,4.65,15.896,3.941,16.579z M10.773,11.392l-0.045,0.052
		c-0.035,0.037-0.067,0.069-0.097,0.096c0.016-0.318,0.094-0.863,0.271-1.521l0.627-0.7C11.62,9.811,11.55,10.554,10.773,11.392z
		 M4.645,12.874C4.641,11.854,6.607,7.525,9.31,4.888c0.012-0.011,1.179-1.117,2.97-1.117c0.492,0,0.99,0.084,1.482,0.25
		c0.521,1.632-0.606,3.552-1.492,4.729c-0.05-0.144-0.113-0.285-0.191-0.423C12.09,8.323,12.1,8.318,12.11,8.313
		c0.102-0.047,0.18-0.131,0.225-0.245c0.036-0.105,0.03-0.219-0.016-0.32c-0.046-0.102-0.131-0.18-0.243-0.224
		c-1.614-0.568-1.983-1.636-2.058-1.949C10,5.463,9.936,5.36,9.842,5.293C9.768,5.24,9.679,5.211,9.586,5.211L9.519,5.217
		c-0.115,0.017-0.22,0.08-0.286,0.169C9.163,5.479,9.135,5.594,9.151,5.68l0.006,0.052c0.086,0.397,0.494,1.683,2.235,2.446
		c-0.013,0.012-0.026,0.023-0.038,0.037l-1.172,1.306c-0.046,0.052-0.078,0.113-0.09,0.166c-0.146,0.484-0.249,0.984-0.308,1.486
		c-2.222,1.563-4.276,1.733-5.062,1.733L4.645,12.874z M5.901,5.504h1.674c-1.081,1.312-2.113,2.949-2.879,4.572L4.315,9.952
		C4.658,9.16,5.4,7.448,5.703,6.916C5.991,6.413,5.973,5.878,5.901,5.504z"/>
	<path d="M19.582,7.118c-0.05-0.008-0.099-0.012-0.184-0.018L17.863,7c-0.034-0.005-0.066-0.009-0.099-0.011
		c-0.038-0.003-0.073-0.004-0.104-0.003l-0.147-0.007c-0.028,0-0.056,0.003-0.084,0.005c-0.201,0-0.376,0.011-0.562,0.035
		c-0.008,0.001-0.854,0.157-1.779,0.833c-0.832,0.608-1.898,1.777-2.265,3.893c-0.068,0.428-0.139,0.871-0.406,1.615
		c-0.243,0.675-0.704,1.275-1.36,1.78c-0.035,0.021-0.06,0.049-0.085,0.078c-0.01,0.013-0.052,0.057-0.167,0.113l-0.257,0.159
		c-0.967,0.582-1.593,1.457-1.814,2.562c-0.008,0.063-0.015,0.127-0.019,0.188c-0.063,0.88,0.255,1.671,0.955,2.313
		c0.252,0.191,0.531,0.331,0.83,0.418l0.069,0.021c0.283,0.08,0.588,0.121,0.908,0.121c0.084,0,0.17-0.003,0.224-0.009l0.904,0.087
		c0.17,0.025,0.348,0.038,0.529,0.038c0.493,0,1.028-0.094,1.623-0.29c3.129-1.296,5.099-2.646,6.201-3.553
		c1.161-0.961,1.636-1.642,1.672-1.697c0.748-0.868,1.188-1.946,1.272-3.115C24.102,9.776,22.198,7.379,19.582,7.118z
		 M11.071,18.999l0.183-0.096l-0.019-0.136c-0.007-0.08-0.01-0.161-0.009-0.247c-0.001-0.082,0.008-0.173,0.012-0.215
		c0.042-0.21,0.104-0.409,0.184-0.595c0.152-0.355,0.38-0.674,0.679-0.949l0.718,1.628l0.782-0.37l-0.784-1.778l0.009-0.006
		c0.194-0.096,0.339-0.201,0.415-0.296c0.062-0.046,0.119-0.094,0.177-0.143l0.873,1.984l0.782-0.373l-0.996-2.262
		c0.356-0.421,0.628-0.884,0.808-1.378c0.293-0.821,0.376-1.331,0.447-1.779l0.013-0.069c0.014-0.073,0.027-0.145,0.044-0.222
		c0.012-0.064,0.026-0.125,0.044-0.191l0.029-0.111c0.062-0.231,0.135-0.453,0.217-0.663l0.024-0.058
		c0.049-0.116,0.105-0.238,0.176-0.379l0.025-0.046c0.051-0.103,0.112-0.208,0.188-0.33c0.032-0.052,0.064-0.102,0.115-0.172
		c0.029-0.043,0.059-0.084,0.094-0.135l0.043-0.053l-0.156-0.122l0.19,0.079l0.079-0.099c0.034-0.04,0.067-0.08,0.104-0.123
		c0.038-0.043,0.079-0.086,0.122-0.13c0.089-0.091,0.169-0.168,0.252-0.24c0.099-0.088,0.203-0.172,0.312-0.251
		c0.649-0.474,1.239-0.638,1.412-0.679c0.158-0.018,0.311-0.027,0.46-0.027c0.075,0,0.149,0.002,0.268,0.01
		c0.019,0.001,0.038,0.002,0.089,0.01c2.167,0.212,3.734,2.201,3.568,4.526c-0.07,0.978-0.44,1.88-1.07,2.61l-0.034,0.044
		c-0.045,0.066-0.471,0.67-1.523,1.539c-1.055,0.868-2.948,2.164-5.96,3.412c-0.641,0.21-1.237,0.28-1.736,0.203
		c-0.146-0.021-0.283-0.056-0.415-0.105l-0.027-0.011c-0.156-0.061-0.296-0.138-0.411-0.222c-0.296-0.278-0.492-0.592-0.58-0.928
		l-0.021-0.095L11.071,18.999z M16.747,7.963c-0.133,0.096-0.259,0.2-0.375,0.302c-0.095,0.083-0.195,0.177-0.295,0.281
		c-0.053,0.052-0.105,0.11-0.15,0.161c-0.043,0.046-0.085,0.096-0.119,0.139L15.771,8.89c-0.034,0.041-0.066,0.082-0.095,0.12
		l-0.062,0.083c-0.032,0.042-0.062,0.083-0.098,0.138l-0.149,0.222c-0.09,0.141-0.171,0.286-0.257,0.454
		c-0.069,0.134-0.138,0.281-0.208,0.451L14.884,10.4c-0.101,0.25-0.188,0.519-0.262,0.801l-0.024,0.092
		c-0.02,0.078-0.037,0.155-0.05,0.222c-0.024,0.103-0.045,0.21-0.068,0.344c-0.068,0.428-0.139,0.871-0.405,1.612
		c-0.244,0.678-0.706,1.279-1.37,1.786c-0.027,0.02-0.053,0.046-0.078,0.077c-0.006,0.008-0.045,0.052-0.172,0.113l-0.204,0.124
		l0.102,0.171l-0.148-0.14c-0.968,0.584-1.594,1.464-1.812,2.559c-0.008,0.061-0.015,0.124-0.021,0.192
		c-0.003,0.061-0.005,0.121-0.003,0.167c-0.002,0.095,0.002,0.196,0.009,0.306l0.01,0.163l0.012,0.012
		c0.003,0.02,0.006,0.04,0.009,0.062c0.008,0.042,0.016,0.081,0.021,0.1l0.025,0.111c0.017,0.063,0.036,0.124,0.062,0.192
		l0.097,0.243c0.017,0.037,0.033,0.07,0.062,0.126l0.191,0.312c0.004,0.006,0.009,0.013,0.014,0.021
		c-0.037-0.01-0.074-0.02-0.111-0.029c-0.219-0.066-0.406-0.158-0.556-0.269c-0.466-0.435-0.679-0.964-0.636-1.574l0.01-0.112
		c0.168-0.83,0.645-1.486,1.428-1.961l0.159-0.101c0.189-0.093,0.333-0.198,0.414-0.295c0.791-0.611,1.343-1.342,1.641-2.171
		c0.298-0.826,0.379-1.336,0.45-1.784c0.251-1.451,0.895-2.566,1.915-3.312c0.473-0.346,0.923-0.528,1.181-0.614L16.747,7.963z"/>
	<path d="M19.82,14.285c0.029,0.002,0.06,0.003,0.088,0.003c0.854,0,1.579-0.841,1.654-1.915c0.046-0.624-0.135-1.218-0.493-1.63
		c-0.261-0.3-0.602-0.478-0.96-0.502c-0.883-0.055-1.663,0.801-1.743,1.913c-0.044,0.624,0.136,1.219,0.494,1.631
		C19.124,14.088,19.457,14.261,19.82,14.285z M20.016,10.919L20.016,10.919l0.032,0.195c0.176,0.012,0.305,0.121,0.382,0.21
		c0.201,0.23,0.304,0.6,0.276,0.989c-0.044,0.606-0.398,1.1-0.824,1.1h-0.001c-0.175-0.013-0.304-0.121-0.382-0.21
		c-0.2-0.231-0.303-0.601-0.274-0.99c0.042-0.607,0.398-1.101,0.791-1.101V10.919z"/>
	<path d="M18.956,15.986c0.041,0.003,0.083,0.005,0.126,0.005c0.346,0,0.695-0.1,1.011-0.288l0.165-0.099l-0.421-0.76l-0.177,0.104
		c-0.185,0.11-0.378,0.167-0.574,0.167l-0.07-0.002c-0.297-0.021-0.576-0.172-0.806-0.437c-0.377-0.432-0.57-1.111-0.521-1.816
		l0.014-0.198l-0.856-0.062L16.833,12.8c-0.068,0.944,0.201,1.84,0.737,2.458C17.953,15.699,18.433,15.951,18.956,15.986z"/>
</g>
</svg>
