<?xml version="1.0" encoding="utf-8"?>
<!-- Generator: Adobe Illustrator 16.0.0, SVG Export Plug-In . SVG Version: 6.00 Build 0)  -->
<!DOCTYPE svg PUBLIC "-//W3C//DTD SVG 1.0//EN" "http://www.w3.org/TR/2001/REC-SVG-20010904/DTD/svg10.dtd">
<svg version="1.0" xmlns="http://www.w3.org/2000/svg" xmlns:xlink="http://www.w3.org/1999/xlink" x="0px" y="0px" width="64px"
	 height="64px" viewBox="0 0 64 64" enable-background="new 0 0 64 64" xml:space="preserve">
<g id="Calque_1" display="none">
	
		<image display="inline" overflow="visible" width="32" height="32" xlink:href="panier-sad.png"  transform="matrix(1 0 0 1 16 14.7139)">
	</image>
</g>
<g id="Calque_3" display="none">
	<line display="inline" fill="none" stroke="#000000" stroke-width="0.25" stroke-miterlimit="10" x1="0" y1="0" x2="64" y2="64"/>
	<line display="inline" fill="none" stroke="#000000" stroke-width="0.25" stroke-miterlimit="10" x1="64" y1="0" x2="0" y2="64"/>
</g>
<g id="Calque_2">
	<g>
		<polyline fill="none" stroke="#000000" stroke-miterlimit="10" points="22,44.5 43,44.5 45.765,31.5 47.5,31.5 47.5,27.5 
			16.5,27.5 16.5,32 		"/>
		<line fill="none" stroke="#000000" stroke-miterlimit="10" x1="21.813" y1="24.688" x2="26.375" y2="16.313"/>
		<line fill="none" stroke="#000000" stroke-miterlimit="10" x1="43.375" y1="24.688" x2="38.813" y2="16.313"/>
		<line fill="none" stroke="#000000" stroke-miterlimit="10" x1="26" y1="35.5" x2="28" y2="35.5"/>
		<line fill="none" stroke="#000000" stroke-miterlimit="10" x1="37" y1="35.5" x2="39" y2="35.5"/>
		<path fill="none" stroke="#000000" stroke-miterlimit="10" d="M27,41.563c0,0,5.094-5.906,11,0"/>
		<line fill="none" stroke="#000000" stroke-miterlimit="10" x1="16" y1="31.5" x2="46" y2="31.5"/>
		<polyline fill="none" stroke="#000000" stroke-miterlimit="10" points="42,44.5 21,44.5 18.235,31.5 16.5,31.5 16.5,27.5 
			47.5,27.5 47.5,32 		"/>
	</g>
</g>
</svg>
