<?xml version="1.0" encoding="utf-8"?>
<!-- Generator: Adobe Illustrator 16.0.4, SVG Export Plug-In . SVG Version: 6.00 Build 0)  -->
<!DOCTYPE svg PUBLIC "-//W3C//DTD SVG 1.1//EN" "http://www.w3.org/Graphics/SVG/1.1/DTD/svg11.dtd">
<svg version="1.1" id="Calque_1" xmlns="http://www.w3.org/2000/svg" xmlns:xlink="http://www.w3.org/1999/xlink" x="0px" y="0px"
	 width="24px" height="24px" viewBox="0 0 24 24" enable-background="new 0 0 24 24" xml:space="preserve">
<path d="M23.207,10.864h-1.728c-0.196-0.885-0.617-1.704-1.233-2.386c-0.282-0.31-0.607-0.56-0.959-0.739
	C19.99,7.26,20.45,6.462,20.45,5.56V5.18h-1.926c-0.98,0-1.839,0.521-2.309,1.294V5.56c0-0.835,0.69-1.515,1.54-1.515V3.287
	c-1.275,0-2.312,1.02-2.312,2.273v2.103c-1.14-0.407-2.42-0.102-3.238,0.793c-0.099,0.108-0.192,0.221-0.281,0.336l0.034-0.158
	c0.053-0.253,0.081-0.514,0.081-0.801c0-1.064-0.45-2.025-1.172-2.714l1.352-1.955c0.03-0.042,0.055-0.086,0.078-0.134
	c0.294-0.578,0.056-1.284-0.532-1.573l-0.096-0.047c-0.285-0.14-0.608-0.163-0.912-0.063c-0.301,0.099-0.546,0.308-0.691,0.594
	c-0.021,0.04-0.04,0.082-0.054,0.124L9.227,4.188C9.173,4.173,9.119,4.16,9.066,4.147l0.272-2.679
	c0.002-0.037,0.004-0.075,0.004-0.112c0-0.607-0.5-1.101-1.118-1.101H8.153c-0.619,0-1.12,0.494-1.12,1.101
	c0,0.038,0.001,0.075,0.005,0.109l0.273,2.682C7.256,4.161,7.203,4.174,7.15,4.189L6.365,2.064C6.349,2.021,6.332,1.98,6.309,1.934
	C6.166,1.653,5.92,1.444,5.619,1.346c-0.304-0.1-0.626-0.077-0.911,0.063L4.613,1.456c-0.589,0.29-0.828,0.996-0.535,1.575
	c0.024,0.046,0.05,0.09,0.081,0.133L5.51,5.121C4.788,5.813,4.338,6.781,4.338,7.86c0,0.259,0.027,0.52,0.08,0.772l0.473,2.231
	H4.338c-0.425,0-0.771,0.34-0.771,0.757v0.031c-0.126-0.018-0.254-0.031-0.387-0.031H1.256V12c0,0.904,0.461,1.7,1.164,2.178
	c-0.351,0.18-0.677,0.43-0.958,0.738c-0.877,0.973-1.362,2.223-1.362,3.523c0,1.455,0.588,2.814,1.654,3.822
	c1.014,0.961,2.333,1.482,3.734,1.482c0.073,0,0.145-0.002,0.217-0.004c1.372-0.053,2.617-0.621,3.544-1.512h11.26
	c1.062,0,1.926-0.85,1.926-1.895v-7.198h0.771c0.423,0,0.771-0.339,0.771-0.756v-0.759C23.978,11.204,23.63,10.864,23.207,10.864z
	 M18.524,5.939h1.118c-0.179,0.863-0.957,1.515-1.887,1.515H16.64C16.817,6.59,17.596,5.939,18.524,5.939z M12.777,8.962
	c0.628-0.687,1.667-0.913,2.523-0.551c0.047,0.019,0.096,0.035,0.144,0.051v0.809c-0.381-0.14-0.745-0.436-0.884-0.57l-0.544,0.536
	c0.091,0.089,0.91,0.869,1.813,0.869s1.724-0.78,1.812-0.869L17.1,8.701c-0.14,0.134-0.504,0.43-0.884,0.57v-1.06h1.54
	c0.132,0,0.259-0.012,0.384-0.03c0.538,0.038,1.109,0.335,1.529,0.799c0.491,0.542,0.838,1.187,1.021,1.883h-8.948
	C11.926,10.16,12.277,9.509,12.777,8.962z M10.736,2.322c0.005-0.015,0.012-0.029,0.022-0.05c0.051-0.099,0.137-0.173,0.244-0.208
	c0.108-0.035,0.222-0.027,0.323,0.023l0.097,0.047c0.207,0.103,0.292,0.353,0.188,0.556c-0.007,0.017-0.018,0.034-0.028,0.049
	l-1.318,1.907c-0.103-0.065-0.209-0.125-0.318-0.181L10.736,2.322z M7.803,1.357c0-0.189,0.157-0.343,0.35-0.343h0.071
	c0.194,0,0.35,0.154,0.348,0.377L8.301,4.05C8.265,4.049,8.226,4.044,8.188,4.044c-0.037,0-0.075,0.004-0.112,0.005L7.803,1.357z
	 M4.796,2.74C4.786,2.724,4.774,2.707,4.768,2.691c-0.105-0.205-0.02-0.455,0.188-0.558l0.096-0.047
	c0.1-0.049,0.215-0.058,0.323-0.023C5.481,2.099,5.568,2.173,5.621,2.28c0.008,0.013,0.014,0.028,0.021,0.043l0.79,2.143
	C6.324,4.521,6.217,4.582,6.115,4.647L4.796,2.74z M8.188,4.802c1.699,0,3.081,1.359,3.081,3.058c0,0.207-0.021,0.415-0.065,0.618
	L10.7,10.864H6.409c0.272-0.233,0.623-0.379,1.01-0.379V9.727c-0.728,0-1.378,0.334-1.802,0.852l-0.445-2.1
	C5.129,8.275,5.107,8.067,5.107,7.833C5.107,6.162,6.49,4.802,8.188,4.802z M4.338,11.621h0.805C5.121,11.744,5.107,11.871,5.107,12
	v0.421c-0.221-0.222-0.481-0.405-0.769-0.54V11.621z M3.181,12.38c0.932,0,1.709,0.65,1.888,1.515H3.953
	c-0.93,0-1.709-0.652-1.887-1.515H3.181z M5.677,22.98c-1.278,0.047-2.474-0.4-3.388-1.264c-0.914-0.867-1.417-2.029-1.417-3.277
	c0-1.113,0.414-2.188,1.166-3.018c0.421-0.465,0.991-0.764,1.531-0.799c0.126,0.016,0.253,0.027,0.383,0.027h1.154v1.061
	c-0.381-0.141-0.746-0.436-0.883-0.57l-0.545,0.537c0.091,0.088,0.911,0.869,1.813,0.869c0.904,0,1.723-0.781,1.812-0.869
	l-0.542-0.537c-0.139,0.135-0.501,0.43-0.884,0.57v-0.713c0.185-0.029,0.363-0.078,0.528-0.146c0.859-0.361,1.897-0.135,2.524,0.551
	c0.813,0.889,1.234,2.041,1.179,3.244C10.004,20.986,8.057,22.891,5.677,22.98z M10.878,18.439c0-0.795-0.173-1.57-0.514-2.271
	h11.302v2.271H10.878z M20.511,21.471H9.907c0.476-0.664,0.798-1.438,0.922-2.275h10.837v1.139
	C21.666,20.961,21.147,21.471,20.511,21.471z M23.207,12.38h-1.541v3.03H9.912c-0.125-0.18-0.259-0.354-0.41-0.516
	c-0.857-0.938-2.224-1.232-3.399-0.74c-0.069,0.029-0.146,0.051-0.224,0.068v-1.087h15.019V12.38H5.878V12
	c0-0.131,0.022-0.256,0.055-0.379h17.274V12.38z"/>
</svg>
